<svg width="54" height="62" viewBox="0 0 54 62" fill="none" xmlns="http://www.w3.org/2000/svg">
<mask id="path-1-outside-1" maskUnits="userSpaceOnUse" x="-0.324219" y="-0.845703" width="54" height="63" fill="black">
<rect fill="white" x="-0.324219" y="-0.845703" width="54" height="63"/>
<path fill-rule="evenodd" clip-rule="evenodd" d="M35.0037 13.1916L35.0058 13.1966L35.0133 13.2146L35.0442 13.289C35.0585 13.3234 35.0765 13.3666 35.0981 13.4181C35.1181 13.4658 35.1411 13.5207 35.167 13.5825C35.2748 13.8394 35.4332 14.2145 35.6333 14.683C36.0337 15.6207 36.6006 16.9302 37.2648 18.4149C38.6032 21.4068 40.3 25.026 41.8145 27.7521L43.3528 30.5211L37.8149 33.5978L36.2766 30.8288C34.6235 27.8533 32.8359 24.0286 31.4819 21.002C31.0877 20.121 30.7272 19.3005 30.4137 18.579C29.6365 18.9045 28.7473 19.268 27.7977 19.6399C24.796 20.8154 20.8213 22.2251 17.9238 22.6108L14.7839 23.0288L13.948 16.749L17.0879 16.331C21 15.5 23.1601 14.6524 25.4876 13.7409C26.9575 13.1652 28.281 12.6082 29.2374 12.1947C29.7149 11.9883 30.099 11.8185 30.362 11.7011C30.4935 11.6424 30.5946 11.5969 30.6618 11.5664L30.7367 11.5325L30.7543 11.5244L30.758 11.5228L33.7469 10.1543L35.0037 13.1916ZM29.1223 28.6489L30.6981 25.9011L25.2025 22.7495L23.6267 25.4973L23.6045 25.5361L23.5823 25.5748L23.5601 25.6136L23.5378 25.6523L23.5156 25.691L23.4934 25.7298L23.4712 25.7685L23.449 25.8073L23.4267 25.846L23.4045 25.8847L23.3823 25.9235L23.3601 25.9622L23.3379 26.001L23.3157 26.0397L23.2934 26.0785L23.2712 26.1172L23.249 26.1559L23.2268 26.1947L23.2046 26.2334L23.1824 26.2722L23.1601 26.3109L23.1379 26.3496L23.1157 26.3884L23.0935 26.4271L23.0713 26.4659L23.0491 26.5046L23.0268 26.5433L23.0046 26.5821L22.9824 26.6208L22.9602 26.6596L22.938 26.6983L22.9158 26.737L22.8935 26.7758L22.8713 26.8145L22.8491 26.8533L22.8269 26.892L22.8047 26.9308L22.7825 26.9695L22.7602 27.0082L22.738 27.047L22.7158 27.0857L22.6936 27.1245L22.6714 27.1632L22.6492 27.2019L22.6269 27.2407L22.6047 27.2794L22.5825 27.3182L22.5603 27.3569L22.5381 27.3956L22.5159 27.4344L22.4936 27.4731L22.4714 27.5119L22.4492 27.5506L22.427 27.5893L22.4048 27.6281L22.3825 27.6668L22.3603 27.7056L22.3381 27.7443L22.3159 27.7831L22.2937 27.8218L22.2715 27.8605L22.2492 27.8993L22.227 27.938L22.2048 27.9768L22.1826 28.0155L22.1604 28.0542L22.1382 28.093L22.1159 28.1317L22.0937 28.1705L22.0715 28.2092L22.0493 28.2479L22.0271 28.2867L22.0049 28.3254L21.9826 28.3642L21.9604 28.4029L21.9382 28.4417L21.916 28.4804L21.8938 28.5191L21.8716 28.5579L21.8493 28.5966L21.8271 28.6354L21.8049 28.6741L21.7827 28.7128L21.7605 28.7516L21.7383 28.7903L21.716 28.8291L21.6938 28.8678L21.6716 28.9065L21.6494 28.9453L21.6272 28.984L21.605 29.0228L21.5827 29.0615L21.5605 29.1003L21.5383 29.139L21.5161 29.1777L21.4939 29.2165L21.4717 29.2552L21.4494 29.294L21.4272 29.3327L21.405 29.3714L21.3828 29.4102L21.3606 29.4489L21.3384 29.4877L21.3161 29.5264L21.2939 29.5651L21.2717 29.6039L21.2495 29.6426L21.2273 29.6814L21.2051 29.7201L21.1828 29.7588L21.1606 29.7976L21.1384 29.8363L21.1162 29.8751L21.094 29.9138L21.0717 29.9526L21.0495 29.9913L21.0273 30.03L21.0051 30.0688L20.9829 30.1075L20.9607 30.1463L20.9384 30.185L20.9162 30.2237L20.894 30.2625L20.8718 30.3012L20.8496 30.34L20.8274 30.3787L20.8051 30.4174L20.7829 30.4562L20.7607 30.4949L20.7385 30.5337L20.7163 30.5724L20.6941 30.6111L20.6718 30.6499L20.6496 30.6886L20.6274 30.7274L20.6052 30.7661L20.583 30.8048L20.5608 30.8436L20.5385 30.8823L20.5163 30.9211L20.4941 30.9598L20.4719 30.9986L20.4497 31.0373L20.4275 31.076L20.4052 31.1148L20.383 31.1535L20.3608 31.1923L20.3386 31.231L20.3164 31.2697L20.2941 31.3085L20.2719 31.3472L20.2497 31.386L20.2275 31.4247L20.2053 31.4634L20.1831 31.5022L20.1608 31.5409L20.1386 31.5797L20.1164 31.6184L20.0942 31.6572L20.072 31.6959L20.0498 31.7346L20.0275 31.7734L20.0053 31.8121L19.9831 31.8509L19.9609 31.8896L19.9387 31.9283L19.9165 31.9671L19.8942 32.0058L19.872 32.0446L19.8498 32.0833L19.8276 32.122L19.8054 32.1608L19.7832 32.1995L19.7609 32.2383L19.7387 32.277L19.7165 32.3158L19.6943 32.3545L19.6721 32.3932L19.6499 32.432L19.6276 32.4707L19.6054 32.5095L19.5832 32.5482L19.561 32.5869L19.5388 32.6257L19.5166 32.6644L19.4943 32.7032L19.4721 32.7419L19.4499 32.7806L19.4277 32.8194L19.4055 32.8581L19.3833 32.8969L19.361 32.9356L19.3388 32.9743L19.3166 33.0131L19.2944 33.0518L19.2722 33.0906L19.25 33.1293L19.2277 33.1681L19.2055 33.2068L19.1833 33.2455L19.1611 33.2843L19.1389 33.323L19.1166 33.3618L19.0944 33.4005L19.0722 33.4392L19.05 33.478L19.0278 33.5167L19.0056 33.5555L18.9833 33.5942L18.9611 33.6329L18.9389 33.6717L18.9167 33.7104L18.8945 33.7492L18.8723 33.7879L18.85 33.8266L18.8278 33.8654L18.8056 33.9041L18.7834 33.9429L18.7612 33.9816L18.739 34.0204L18.7167 34.0591L18.6945 34.0978L18.6723 34.1366L18.6501 34.1753L18.6279 34.2141L18.6057 34.2528L18.5834 34.2915L18.5612 34.3303L18.539 34.369L18.5168 34.4078L18.4946 34.4465L18.4724 34.4852L18.4501 34.524L18.4279 34.5627L18.4057 34.6015L18.3835 34.6402L18.3613 34.6789L18.3391 34.7177L18.3168 34.7564L18.2946 34.7952L18.2724 34.8339L18.2502 34.8727L18.228 34.9114L18.2058 34.9501L18.1835 34.9889L18.1613 35.0276L18.1391 35.0664L18.1169 35.1051L18.0947 35.1438L18.0725 35.1826L18.0502 35.2213L18.028 35.2601L18.0058 35.2988L17.9836 35.3375L17.9614 35.3763L17.9391 35.415L17.9169 35.4538L17.8947 35.4925L17.8725 35.5312L17.8503 35.57L17.8281 35.6087L17.8058 35.6475L17.7836 35.6862L17.7614 35.725L17.7392 35.7637L17.717 35.8024L17.6948 35.8412L17.6725 35.8799L17.6503 35.9187L17.6281 35.9574L17.6059 35.9961L17.5837 36.0349L17.5615 36.0736L17.5392 36.1124L17.517 36.1511L17.4948 36.1898L17.4726 36.2286L17.4504 36.2673L17.4282 36.3061L17.4059 36.3448L17.3837 36.3836L17.3615 36.4223L17.3393 36.461L17.3171 36.4998L17.2949 36.5385L17.2726 36.5773L17.2504 36.616L17.2282 36.6547L17.206 36.6935L17.1838 36.7322L17.1615 36.771L17.1393 36.8097L17.1171 36.8484L17.0949 36.8872L17.0727 36.9259L17.0505 36.9647L17.0282 37.0034L17.006 37.0422L16.9838 37.0809L16.9616 37.1196L16.9394 37.1584L16.9172 37.1971L16.8949 37.2359L16.8727 37.2746L16.8505 37.3133L16.8283 37.3521L16.8061 37.3908L16.7839 37.4296L16.7616 37.4683L16.7394 37.507L16.7172 37.5458L16.695 37.5845L16.6728 37.6233L16.6506 37.662L16.6283 37.7007L16.6061 37.7395L16.5839 37.7782L16.5617 37.817L16.5395 37.8557L16.5173 37.8944L16.495 37.9332L16.4728 37.9719L16.4506 38.0107L16.4284 38.0494L16.4062 38.0882L16.384 38.1269L16.3617 38.1656L16.3395 38.2044L16.3173 38.2431L16.2951 38.2819L16.2729 38.3206L16.2507 38.3593L16.2284 38.3981L16.2062 38.4368L16.184 38.4756L16.1618 38.5143L16.1396 38.553L16.1174 38.5918L16.0951 38.6305L16.0729 38.6693L16.0507 38.708L16.0285 38.7467L16.0063 38.7855L15.9841 38.8242L15.9618 38.863L15.9396 38.9017L15.9174 38.9405L15.8952 38.9792L15.873 39.0179L15.8507 39.0567L15.8285 39.0954L15.8063 39.1342L15.7841 39.1729L15.7619 39.2116L15.7397 39.2504L15.7174 39.2891L15.6952 39.3279L15.673 39.3666L15.6508 39.4053L15.6286 39.4441L15.6064 39.4828L15.5841 39.5216L15.5619 39.5603L15.5397 39.5991L15.5175 39.6378L15.4953 39.6765L15.4731 39.7153L15.4508 39.754L15.4286 39.7928L15.4064 39.8315L15.3842 39.8702L15.362 39.909L15.3398 39.9477L15.3175 39.9865L15.2953 40.0252L15.2731 40.0639L15.2509 40.1027L15.2287 40.1414L15.2065 40.1802L15.1842 40.2189L15.162 40.2577L15.1398 40.2964L15.1176 40.3351L15.0954 40.3739L15.0732 40.4126L15.0509 40.4514L15.0287 40.4901L15.0065 40.5288L14.9843 40.5676L14.9621 40.6063L14.9398 40.6451L14.9176 40.6838L14.8954 40.7225L14.8732 40.7613L14.851 40.8L14.8288 40.8388L14.8065 40.8775L14.7843 40.9162L14.7621 40.955L14.7399 40.9937L14.7177 41.0325L14.6955 41.0712L14.6732 41.11L14.651 41.1487L14.6288 41.1874L14.6066 41.2262L14.5844 41.2649L14.5622 41.3037L14.5399 41.3424L14.5177 41.3811L14.4955 41.4199L14.4733 41.4586L14.4511 41.4974L14.4289 41.5361L14.4066 41.5748L14.3844 41.6136L14.3622 41.6523L14.34 41.6911L14.3178 41.7298L14.2956 41.7685L14.2733 41.8073L14.2511 41.846L14.2289 41.8848L14.2067 41.9235L14.1845 41.9623L14.1623 42.001L14.14 42.0397L14.1178 42.0785L14.0956 42.1172L14.0734 42.156L14.0512 42.1947L14.0289 42.2334L14.0067 42.2722L13.9845 42.3109L13.9623 42.3497L13.9401 42.3884L13.9179 42.4271L13.8956 42.4659L13.8734 42.5046L13.8512 42.5434L13.829 42.5821L13.8068 42.6208L13.7846 42.6596L13.7623 42.6983L13.7401 42.7371L13.7179 42.7758L13.6957 42.8146L13.6735 42.8533L13.6513 42.892L13.629 42.9308L13.6068 42.9695L13.5846 43.0083L13.5624 43.047L13.5402 43.0857L13.518 43.1245L13.4957 43.1632L13.4735 43.202L13.4513 43.2407L13.4291 43.2794L13.4069 43.3182L13.3847 43.3569L13.3624 43.3957L13.3402 43.4344L13.318 43.4732L13.2958 43.5119L13.2736 43.5506L13.2514 43.5894L13.2291 43.6281L13.2069 43.6669L13.1847 43.7056L13.1625 43.7443L13.1403 43.7831L13.1181 43.8218L13.0958 43.8606L13.0736 43.8993L13.0514 43.938L13.0292 43.9768L13.007 44.0155L12.9848 44.0543L12.9625 44.093L12.9403 44.1318L12.9181 44.1705L12.8959 44.2092L12.8737 44.248L12.8515 44.2867L12.8292 44.3255L12.807 44.3642L12.7848 44.4029L12.7626 44.4417L12.7404 44.4804L12.7182 44.5192L12.6959 44.5579L12.6737 44.5966L12.6515 44.6354L12.6293 44.6741L12.6071 44.7129L12.5848 44.7516L12.5626 44.7903L12.5404 44.8291L12.5182 44.8678L12.496 44.9066L12.4738 44.9453L12.4515 44.9841L12.4293 45.0228L12.4071 45.0615L12.3849 45.1003L12.3627 45.139L12.3405 45.1778L12.3182 45.2165L12.296 45.2552L12.2738 45.294L12.2516 45.3327L10.6758 48.0805L16.1714 51.2322L17.7472 48.4843L17.7694 48.4456L17.7917 48.4069L17.8139 48.3681L17.8361 48.3294L17.8583 48.2906L17.8805 48.2519L17.9027 48.2132L17.925 48.1744L17.9472 48.1357L17.9694 48.0969L17.9916 48.0582L18.0138 48.0194L18.036 47.9807L18.0583 47.942L18.0805 47.9032L18.1027 47.8645L18.1249 47.8257L18.1471 47.787L18.1694 47.7483L18.1916 47.7095L18.2138 47.6708L18.236 47.632L18.2582 47.5933L18.2804 47.5546L18.3027 47.5158L18.3249 47.4771L18.3471 47.4383L18.3693 47.3996L18.3915 47.3608L18.4137 47.3221L18.436 47.2834L18.4582 47.2446L18.4804 47.2059L18.5026 47.1671L18.5248 47.1284L18.547 47.0897L18.5693 47.0509L18.5915 47.0122L18.6137 46.9734L18.6359 46.9347L18.6581 46.896L18.6803 46.8572L18.7026 46.8185L18.7248 46.7797L18.747 46.741L18.7692 46.7022L18.7914 46.6635L18.8136 46.6248L18.8359 46.586L18.8581 46.5473L18.8803 46.5085L18.9025 46.4698L18.9247 46.4311L18.9469 46.3923L18.9692 46.3536L18.9914 46.3148L19.0136 46.2761L19.0358 46.2374L19.058 46.1986L19.0802 46.1599L19.1025 46.1211L19.1247 46.0824L19.1469 46.0437L19.1691 46.0049L19.1913 45.9662L19.2136 45.9274L19.2358 45.8887L19.258 45.8499L19.2802 45.8112L19.3024 45.7725L19.3246 45.7337L19.3469 45.695L19.3691 45.6562L19.3913 45.6175L19.4135 45.5788L19.4357 45.54L19.4579 45.5013L19.4802 45.4625L19.5024 45.4238L19.5246 45.3851L19.5468 45.3463L19.569 45.3076L19.5912 45.2688L19.6135 45.2301L19.6357 45.1914L19.6579 45.1526L19.6801 45.1139L19.7023 45.0751L19.7245 45.0364L19.7468 44.9976L19.769 44.9589L19.7912 44.9202L19.8134 44.8814L19.8356 44.8427L19.8578 44.8039L19.8801 44.7652L19.9023 44.7265L19.9245 44.6877L19.9467 44.649L19.9689 44.6102L19.9911 44.5715L20.0134 44.5328L20.0356 44.494L20.0578 44.4553L20.08 44.4165L20.1022 44.3778L20.1244 44.3391L20.1467 44.3003L20.1689 44.2616L20.1911 44.2228L20.2133 44.1841L20.2355 44.1453L20.2577 44.1066L20.28 44.0679L20.3022 44.0291L20.3244 43.9904L20.3466 43.9516L20.3688 43.9129L20.391 43.8742L20.4133 43.8354L20.4355 43.7967L20.4577 43.7579L20.4799 43.7192L20.5021 43.6805L20.5244 43.6417L20.5466 43.603L20.5688 43.5642L20.591 43.5255L20.6132 43.4867L20.6354 43.448L20.6577 43.4093L20.6799 43.3705L20.7021 43.3318L20.7243 43.293L20.7465 43.2543L20.7687 43.2156L20.791 43.1768L20.8132 43.1381L20.8354 43.0993L20.8576 43.0606L20.8798 43.0219L20.902 42.9831L20.9243 42.9444L20.9465 42.9056L20.9687 42.8669L20.9909 42.8281L21.0131 42.7894L21.0353 42.7507L21.0576 42.7119L21.0798 42.6732L21.102 42.6344L21.1242 42.5957L21.1464 42.557L21.1686 42.5182L21.1909 42.4795L21.2131 42.4407L21.2353 42.402L21.2575 42.3633L21.2797 42.3245L21.302 42.2858L21.3242 42.247L21.3464 42.2083L21.3686 42.1696L21.3908 42.1308L21.413 42.0921L21.4353 42.0533L21.4575 42.0146L21.4797 41.9758L21.5019 41.9371L21.5241 41.8984L21.5463 41.8596L21.5686 41.8209L21.5908 41.7821L21.613 41.7434L21.6352 41.7047L21.6574 41.6659L21.6796 41.6272L21.7019 41.5884L21.7241 41.5497L21.7463 41.511L21.7685 41.4722L21.7907 41.4335L21.8129 41.3947L21.8352 41.356L21.8574 41.3173L21.8796 41.2785L21.9018 41.2398L21.924 41.201L21.9462 41.1623L21.9685 41.1236L21.9907 41.0848L22.0129 41.0461L22.0351 41.0073L22.0573 40.9686L22.0795 40.9298L22.1018 40.8911L22.124 40.8524L22.1462 40.8136L22.1684 40.7749L22.1906 40.7361L22.2128 40.6974L22.2351 40.6587L22.2573 40.6199L22.2795 40.5812L22.3017 40.5424L22.3239 40.5037L22.3461 40.465L22.3684 40.4262L22.3906 40.3875L22.4128 40.3487L22.435 40.31L22.4572 40.2712L22.4795 40.2325L22.5017 40.1938L22.5239 40.155L22.5461 40.1163L22.5683 40.0775L22.5905 40.0388L22.6128 40.0001L22.635 39.9613L22.6572 39.9226L22.6794 39.8838L22.7016 39.8451L22.7238 39.8064L22.7461 39.7676L22.7683 39.7289L22.7905 39.6901L22.8127 39.6514L22.8349 39.6126L22.8571 39.5739L22.8794 39.5352L22.9016 39.4964L22.9238 39.4577L22.946 39.4189L22.9682 39.3802L22.9904 39.3415L23.0127 39.3027L23.0349 39.264L23.0571 39.2252L23.0793 39.1865L23.1015 39.1478L23.1237 39.109L23.146 39.0703L23.1682 39.0315L23.1904 38.9928L23.2126 38.9541L23.2348 38.9153L23.257 38.8766L23.2793 38.8378L23.3015 38.7991L23.3237 38.7603L23.3459 38.7216L23.3681 38.6829L23.3903 38.6441L23.4126 38.6054L23.4348 38.5666L23.457 38.5279L23.4792 38.4892L23.5014 38.4504L23.5236 38.4117L23.5459 38.3729L23.5681 38.3342L23.5903 38.2955L23.6125 38.2567L23.6347 38.218L23.657 38.1792L23.6792 38.1405L23.7014 38.1018L23.7236 38.063L23.7458 38.0243L23.768 37.9855L23.7903 37.9468L23.8125 37.908L23.8347 37.8693L23.8569 37.8306L23.8791 37.7918L23.9013 37.7531L23.9236 37.7143L23.9458 37.6756L23.968 37.6369L23.9902 37.5981L24.0124 37.5594L24.0346 37.5206L24.0569 37.4819L24.0791 37.4432L24.1013 37.4044L24.1235 37.3657L24.1457 37.3269L24.1679 37.2882L24.1902 37.2495L24.2124 37.2107L24.2346 37.172L24.2568 37.1332L24.279 37.0945L24.3012 37.0557L24.3235 37.017L24.3457 36.9783L24.3679 36.9395L24.3901 36.9008L24.4123 36.862L24.4346 36.8233L24.4568 36.7846L24.479 36.7458L24.5012 36.7071L24.5234 36.6683L24.5456 36.6296L24.5679 36.5909L24.5901 36.5521L24.6123 36.5134L24.6345 36.4746L24.6567 36.4359L24.6789 36.3971L24.7012 36.3584L24.7234 36.3197L24.7456 36.2809L24.7678 36.2422L24.79 36.2034L24.8122 36.1647L24.8345 36.126L24.8567 36.0872L24.8789 36.0485L24.9011 36.0097L24.9233 35.971L24.9455 35.9323L24.9678 35.8935L24.99 35.8548L25.0122 35.816L25.0344 35.7773L25.0566 35.7385L25.0788 35.6998L25.1011 35.6611L25.1233 35.6223L25.1455 35.5836L25.1677 35.5448L25.1899 35.5061L25.2121 35.4674L25.2344 35.4286L25.2566 35.3899L25.2788 35.3511L25.301 35.3124L25.3232 35.2737L25.3454 35.2349L25.3677 35.1962L25.3899 35.1574L25.4121 35.1187L25.4343 35.08L25.4565 35.0412L25.4787 35.0025L25.501 34.9637L25.5232 34.925L25.5454 34.8862L25.5676 34.8475L25.5898 34.8088L25.612 34.77L25.6343 34.7313L25.6565 34.6925L25.6787 34.6538L25.7009 34.6151L25.7231 34.5763L25.7453 34.5376L25.7676 34.4988L25.7898 34.4601L25.812 34.4214L25.8342 34.3826L25.8564 34.3439L25.8787 34.3051L25.9009 34.2664L25.9231 34.2277L25.9453 34.1889L25.9675 34.1502L25.9897 34.1114L26.012 34.0727L26.0342 34.034L26.0564 33.9952L26.0786 33.9565L26.1008 33.9177L26.123 33.879L26.1453 33.8402L26.1675 33.8015L26.1897 33.7628L26.2119 33.724L26.2341 33.6853L26.2563 33.6465L26.2786 33.6078L26.3008 33.5691L26.323 33.5303L26.3452 33.4916L26.3674 33.4528L26.3896 33.4141L26.4119 33.3754L26.4341 33.3366L26.4563 33.2979L26.4785 33.2591L26.5007 33.2204L26.5229 33.1816L26.5452 33.1429L26.5674 33.1042L26.5896 33.0654L26.6118 33.0267L26.634 32.9879L26.6563 32.9492L26.6785 32.9105L26.7007 32.8717L26.7229 32.833L26.7451 32.7942L26.7673 32.7555L26.7896 32.7168L26.8118 32.678L26.834 32.6393L26.8562 32.6005L26.8784 32.5618L26.9006 32.523L26.9229 32.4843L26.9451 32.4456L26.9673 32.4068L26.9895 32.3681L27.0117 32.3293L27.0339 32.2906L27.0562 32.2519L27.0784 32.2131L27.1006 32.1744L27.1228 32.1356L27.145 32.0969L27.1672 32.0582L27.1895 32.0194L27.2117 31.9807L27.2339 31.9419L27.2561 31.9032L27.2783 31.8645L27.3005 31.8257L27.3228 31.787L27.345 31.7482L27.3672 31.7095L27.3894 31.6707L27.4116 31.632L27.4338 31.5933L27.4561 31.5545L27.4783 31.5158L27.5005 31.477L27.5227 31.4383L27.5449 31.3996L27.5672 31.3608L27.5894 31.3221L27.6116 31.2833L27.6338 31.2446L27.656 31.2059L27.6782 31.1671L27.7005 31.1284L27.7227 31.0896L27.7449 31.0509L27.7671 31.0122L27.7893 30.9734L27.8115 30.9347L27.8338 30.8959L27.856 30.8572L27.8782 30.8184L27.9004 30.7797L27.9226 30.741L27.9448 30.7022L27.9671 30.6635L27.9893 30.6247L28.0115 30.586L28.0337 30.5473L28.0559 30.5085L28.0781 30.4698L28.1004 30.431L28.1226 30.3923L28.1448 30.3536L28.167 30.3148L28.1892 30.2761L28.2114 30.2373L28.2337 30.1986L28.2559 30.1599L28.2781 30.1211L28.3003 30.0824L28.3225 30.0436L28.3447 30.0049L28.367 29.9661L28.3892 29.9274L28.4114 29.8887L28.4336 29.8499L28.4558 29.8112L28.478 29.7724L28.5003 29.7337L28.5225 29.695L28.5447 29.6562L28.5669 29.6175L28.5891 29.5787L28.6113 29.54L28.6336 29.5013L28.6558 29.4625L28.678 29.4238L28.7002 29.385L28.7224 29.3463L28.7446 29.3075L28.7669 29.2688L28.7891 29.2301L28.8113 29.1913L28.8335 29.1526L28.8557 29.1138L28.8779 29.0751L28.9002 29.0364L28.9224 28.9976L28.9446 28.9589L28.9668 28.9201L28.989 28.8814L29.0113 28.8427L29.0335 28.8039L29.0557 28.7652L29.0779 28.7264L29.1001 28.6877L29.1223 28.6489Z"/>
</mask>
<path fill-rule="evenodd" clip-rule="evenodd" d="M35.0037 13.1916L35.0058 13.1966L35.0133 13.2146L35.0442 13.289C35.0585 13.3234 35.0765 13.3666 35.0981 13.4181C35.1181 13.4658 35.1411 13.5207 35.167 13.5825C35.2748 13.8394 35.4332 14.2145 35.6333 14.683C36.0337 15.6207 36.6006 16.9302 37.2648 18.4149C38.6032 21.4068 40.3 25.026 41.8145 27.7521L43.3528 30.5211L37.8149 33.5978L36.2766 30.8288C34.6235 27.8533 32.8359 24.0286 31.4819 21.002C31.0877 20.121 30.7272 19.3005 30.4137 18.579C29.6365 18.9045 28.7473 19.268 27.7977 19.6399C24.796 20.8154 20.8213 22.2251 17.9238 22.6108L14.7839 23.0288L13.948 16.749L17.0879 16.331C21 15.5 23.1601 14.6524 25.4876 13.7409C26.9575 13.1652 28.281 12.6082 29.2374 12.1947C29.7149 11.9883 30.099 11.8185 30.362 11.7011C30.4935 11.6424 30.5946 11.5969 30.6618 11.5664L30.7367 11.5325L30.7543 11.5244L30.758 11.5228L33.7469 10.1543L35.0037 13.1916ZM29.1223 28.6489L30.6981 25.9011L25.2025 22.7495L23.6267 25.4973L23.6045 25.5361L23.5823 25.5748L23.5601 25.6136L23.5378 25.6523L23.5156 25.691L23.4934 25.7298L23.4712 25.7685L23.449 25.8073L23.4267 25.846L23.4045 25.8847L23.3823 25.9235L23.3601 25.9622L23.3379 26.001L23.3157 26.0397L23.2934 26.0785L23.2712 26.1172L23.249 26.1559L23.2268 26.1947L23.2046 26.2334L23.1824 26.2722L23.1601 26.3109L23.1379 26.3496L23.1157 26.3884L23.0935 26.4271L23.0713 26.4659L23.0491 26.5046L23.0268 26.5433L23.0046 26.5821L22.9824 26.6208L22.9602 26.6596L22.938 26.6983L22.9158 26.737L22.8935 26.7758L22.8713 26.8145L22.8491 26.8533L22.8269 26.892L22.8047 26.9308L22.7825 26.9695L22.7602 27.0082L22.738 27.047L22.7158 27.0857L22.6936 27.1245L22.6714 27.1632L22.6492 27.2019L22.6269 27.2407L22.6047 27.2794L22.5825 27.3182L22.5603 27.3569L22.5381 27.3956L22.5159 27.4344L22.4936 27.4731L22.4714 27.5119L22.4492 27.5506L22.427 27.5893L22.4048 27.6281L22.3825 27.6668L22.3603 27.7056L22.3381 27.7443L22.3159 27.7831L22.2937 27.8218L22.2715 27.8605L22.2492 27.8993L22.227 27.938L22.2048 27.9768L22.1826 28.0155L22.1604 28.0542L22.1382 28.093L22.1159 28.1317L22.0937 28.1705L22.0715 28.2092L22.0493 28.2479L22.0271 28.2867L22.0049 28.3254L21.9826 28.3642L21.9604 28.4029L21.9382 28.4417L21.916 28.4804L21.8938 28.5191L21.8716 28.5579L21.8493 28.5966L21.8271 28.6354L21.8049 28.6741L21.7827 28.7128L21.7605 28.7516L21.7383 28.7903L21.716 28.8291L21.6938 28.8678L21.6716 28.9065L21.6494 28.9453L21.6272 28.984L21.605 29.0228L21.5827 29.0615L21.5605 29.1003L21.5383 29.139L21.5161 29.1777L21.4939 29.2165L21.4717 29.2552L21.4494 29.294L21.4272 29.3327L21.405 29.3714L21.3828 29.4102L21.3606 29.4489L21.3384 29.4877L21.3161 29.5264L21.2939 29.5651L21.2717 29.6039L21.2495 29.6426L21.2273 29.6814L21.2051 29.7201L21.1828 29.7588L21.1606 29.7976L21.1384 29.8363L21.1162 29.8751L21.094 29.9138L21.0717 29.9526L21.0495 29.9913L21.0273 30.03L21.0051 30.0688L20.9829 30.1075L20.9607 30.1463L20.9384 30.185L20.9162 30.2237L20.894 30.2625L20.8718 30.3012L20.8496 30.34L20.8274 30.3787L20.8051 30.4174L20.7829 30.4562L20.7607 30.4949L20.7385 30.5337L20.7163 30.5724L20.6941 30.6111L20.6718 30.6499L20.6496 30.6886L20.6274 30.7274L20.6052 30.7661L20.583 30.8048L20.5608 30.8436L20.5385 30.8823L20.5163 30.9211L20.4941 30.9598L20.4719 30.9986L20.4497 31.0373L20.4275 31.076L20.4052 31.1148L20.383 31.1535L20.3608 31.1923L20.3386 31.231L20.3164 31.2697L20.2941 31.3085L20.2719 31.3472L20.2497 31.386L20.2275 31.4247L20.2053 31.4634L20.1831 31.5022L20.1608 31.5409L20.1386 31.5797L20.1164 31.6184L20.0942 31.6572L20.072 31.6959L20.0498 31.7346L20.0275 31.7734L20.0053 31.8121L19.9831 31.8509L19.9609 31.8896L19.9387 31.9283L19.9165 31.9671L19.8942 32.0058L19.872 32.0446L19.8498 32.0833L19.8276 32.122L19.8054 32.1608L19.7832 32.1995L19.7609 32.2383L19.7387 32.277L19.7165 32.3158L19.6943 32.3545L19.6721 32.3932L19.6499 32.432L19.6276 32.4707L19.6054 32.5095L19.5832 32.5482L19.561 32.5869L19.5388 32.6257L19.5166 32.6644L19.4943 32.7032L19.4721 32.7419L19.4499 32.7806L19.4277 32.8194L19.4055 32.8581L19.3833 32.8969L19.361 32.9356L19.3388 32.9743L19.3166 33.0131L19.2944 33.0518L19.2722 33.0906L19.25 33.1293L19.2277 33.1681L19.2055 33.2068L19.1833 33.2455L19.1611 33.2843L19.1389 33.323L19.1166 33.3618L19.0944 33.4005L19.0722 33.4392L19.05 33.478L19.0278 33.5167L19.0056 33.5555L18.9833 33.5942L18.9611 33.6329L18.9389 33.6717L18.9167 33.7104L18.8945 33.7492L18.8723 33.7879L18.85 33.8266L18.8278 33.8654L18.8056 33.9041L18.7834 33.9429L18.7612 33.9816L18.739 34.0204L18.7167 34.0591L18.6945 34.0978L18.6723 34.1366L18.6501 34.1753L18.6279 34.2141L18.6057 34.2528L18.5834 34.2915L18.5612 34.3303L18.539 34.369L18.5168 34.4078L18.4946 34.4465L18.4724 34.4852L18.4501 34.524L18.4279 34.5627L18.4057 34.6015L18.3835 34.6402L18.3613 34.6789L18.3391 34.7177L18.3168 34.7564L18.2946 34.7952L18.2724 34.8339L18.2502 34.8727L18.228 34.9114L18.2058 34.9501L18.1835 34.9889L18.1613 35.0276L18.1391 35.0664L18.1169 35.1051L18.0947 35.1438L18.0725 35.1826L18.0502 35.2213L18.028 35.2601L18.0058 35.2988L17.9836 35.3375L17.9614 35.3763L17.9391 35.415L17.9169 35.4538L17.8947 35.4925L17.8725 35.5312L17.8503 35.57L17.8281 35.6087L17.8058 35.6475L17.7836 35.6862L17.7614 35.725L17.7392 35.7637L17.717 35.8024L17.6948 35.8412L17.6725 35.8799L17.6503 35.9187L17.6281 35.9574L17.6059 35.9961L17.5837 36.0349L17.5615 36.0736L17.5392 36.1124L17.517 36.1511L17.4948 36.1898L17.4726 36.2286L17.4504 36.2673L17.4282 36.3061L17.4059 36.3448L17.3837 36.3836L17.3615 36.4223L17.3393 36.461L17.3171 36.4998L17.2949 36.5385L17.2726 36.5773L17.2504 36.616L17.2282 36.6547L17.206 36.6935L17.1838 36.7322L17.1615 36.771L17.1393 36.8097L17.1171 36.8484L17.0949 36.8872L17.0727 36.9259L17.0505 36.9647L17.0282 37.0034L17.006 37.0422L16.9838 37.0809L16.9616 37.1196L16.9394 37.1584L16.9172 37.1971L16.8949 37.2359L16.8727 37.2746L16.8505 37.3133L16.8283 37.3521L16.8061 37.3908L16.7839 37.4296L16.7616 37.4683L16.7394 37.507L16.7172 37.5458L16.695 37.5845L16.6728 37.6233L16.6506 37.662L16.6283 37.7007L16.6061 37.7395L16.5839 37.7782L16.5617 37.817L16.5395 37.8557L16.5173 37.8944L16.495 37.9332L16.4728 37.9719L16.4506 38.0107L16.4284 38.0494L16.4062 38.0882L16.384 38.1269L16.3617 38.1656L16.3395 38.2044L16.3173 38.2431L16.2951 38.2819L16.2729 38.3206L16.2507 38.3593L16.2284 38.3981L16.2062 38.4368L16.184 38.4756L16.1618 38.5143L16.1396 38.553L16.1174 38.5918L16.0951 38.6305L16.0729 38.6693L16.0507 38.708L16.0285 38.7467L16.0063 38.7855L15.9841 38.8242L15.9618 38.863L15.9396 38.9017L15.9174 38.9405L15.8952 38.9792L15.873 39.0179L15.8507 39.0567L15.8285 39.0954L15.8063 39.1342L15.7841 39.1729L15.7619 39.2116L15.7397 39.2504L15.7174 39.2891L15.6952 39.3279L15.673 39.3666L15.6508 39.4053L15.6286 39.4441L15.6064 39.4828L15.5841 39.5216L15.5619 39.5603L15.5397 39.5991L15.5175 39.6378L15.4953 39.6765L15.4731 39.7153L15.4508 39.754L15.4286 39.7928L15.4064 39.8315L15.3842 39.8702L15.362 39.909L15.3398 39.9477L15.3175 39.9865L15.2953 40.0252L15.2731 40.0639L15.2509 40.1027L15.2287 40.1414L15.2065 40.1802L15.1842 40.2189L15.162 40.2577L15.1398 40.2964L15.1176 40.3351L15.0954 40.3739L15.0732 40.4126L15.0509 40.4514L15.0287 40.4901L15.0065 40.5288L14.9843 40.5676L14.9621 40.6063L14.9398 40.6451L14.9176 40.6838L14.8954 40.7225L14.8732 40.7613L14.851 40.8L14.8288 40.8388L14.8065 40.8775L14.7843 40.9162L14.7621 40.955L14.7399 40.9937L14.7177 41.0325L14.6955 41.0712L14.6732 41.11L14.651 41.1487L14.6288 41.1874L14.6066 41.2262L14.5844 41.2649L14.5622 41.3037L14.5399 41.3424L14.5177 41.3811L14.4955 41.4199L14.4733 41.4586L14.4511 41.4974L14.4289 41.5361L14.4066 41.5748L14.3844 41.6136L14.3622 41.6523L14.34 41.6911L14.3178 41.7298L14.2956 41.7685L14.2733 41.8073L14.2511 41.846L14.2289 41.8848L14.2067 41.9235L14.1845 41.9623L14.1623 42.001L14.14 42.0397L14.1178 42.0785L14.0956 42.1172L14.0734 42.156L14.0512 42.1947L14.0289 42.2334L14.0067 42.2722L13.9845 42.3109L13.9623 42.3497L13.9401 42.3884L13.9179 42.4271L13.8956 42.4659L13.8734 42.5046L13.8512 42.5434L13.829 42.5821L13.8068 42.6208L13.7846 42.6596L13.7623 42.6983L13.7401 42.7371L13.7179 42.7758L13.6957 42.8146L13.6735 42.8533L13.6513 42.892L13.629 42.9308L13.6068 42.9695L13.5846 43.0083L13.5624 43.047L13.5402 43.0857L13.518 43.1245L13.4957 43.1632L13.4735 43.202L13.4513 43.2407L13.4291 43.2794L13.4069 43.3182L13.3847 43.3569L13.3624 43.3957L13.3402 43.4344L13.318 43.4732L13.2958 43.5119L13.2736 43.5506L13.2514 43.5894L13.2291 43.6281L13.2069 43.6669L13.1847 43.7056L13.1625 43.7443L13.1403 43.7831L13.1181 43.8218L13.0958 43.8606L13.0736 43.8993L13.0514 43.938L13.0292 43.9768L13.007 44.0155L12.9848 44.0543L12.9625 44.093L12.9403 44.1318L12.9181 44.1705L12.8959 44.2092L12.8737 44.248L12.8515 44.2867L12.8292 44.3255L12.807 44.3642L12.7848 44.4029L12.7626 44.4417L12.7404 44.4804L12.7182 44.5192L12.6959 44.5579L12.6737 44.5966L12.6515 44.6354L12.6293 44.6741L12.6071 44.7129L12.5848 44.7516L12.5626 44.7903L12.5404 44.8291L12.5182 44.8678L12.496 44.9066L12.4738 44.9453L12.4515 44.9841L12.4293 45.0228L12.4071 45.0615L12.3849 45.1003L12.3627 45.139L12.3405 45.1778L12.3182 45.2165L12.296 45.2552L12.2738 45.294L12.2516 45.3327L10.6758 48.0805L16.1714 51.2322L17.7472 48.4843L17.7694 48.4456L17.7917 48.4069L17.8139 48.3681L17.8361 48.3294L17.8583 48.2906L17.8805 48.2519L17.9027 48.2132L17.925 48.1744L17.9472 48.1357L17.9694 48.0969L17.9916 48.0582L18.0138 48.0194L18.036 47.9807L18.0583 47.942L18.0805 47.9032L18.1027 47.8645L18.1249 47.8257L18.1471 47.787L18.1694 47.7483L18.1916 47.7095L18.2138 47.6708L18.236 47.632L18.2582 47.5933L18.2804 47.5546L18.3027 47.5158L18.3249 47.4771L18.3471 47.4383L18.3693 47.3996L18.3915 47.3608L18.4137 47.3221L18.436 47.2834L18.4582 47.2446L18.4804 47.2059L18.5026 47.1671L18.5248 47.1284L18.547 47.0897L18.5693 47.0509L18.5915 47.0122L18.6137 46.9734L18.6359 46.9347L18.6581 46.896L18.6803 46.8572L18.7026 46.8185L18.7248 46.7797L18.747 46.741L18.7692 46.7022L18.7914 46.6635L18.8136 46.6248L18.8359 46.586L18.8581 46.5473L18.8803 46.5085L18.9025 46.4698L18.9247 46.4311L18.9469 46.3923L18.9692 46.3536L18.9914 46.3148L19.0136 46.2761L19.0358 46.2374L19.058 46.1986L19.0802 46.1599L19.1025 46.1211L19.1247 46.0824L19.1469 46.0437L19.1691 46.0049L19.1913 45.9662L19.2136 45.9274L19.2358 45.8887L19.258 45.8499L19.2802 45.8112L19.3024 45.7725L19.3246 45.7337L19.3469 45.695L19.3691 45.6562L19.3913 45.6175L19.4135 45.5788L19.4357 45.54L19.4579 45.5013L19.4802 45.4625L19.5024 45.4238L19.5246 45.3851L19.5468 45.3463L19.569 45.3076L19.5912 45.2688L19.6135 45.2301L19.6357 45.1914L19.6579 45.1526L19.6801 45.1139L19.7023 45.0751L19.7245 45.0364L19.7468 44.9976L19.769 44.9589L19.7912 44.9202L19.8134 44.8814L19.8356 44.8427L19.8578 44.8039L19.8801 44.7652L19.9023 44.7265L19.9245 44.6877L19.9467 44.649L19.9689 44.6102L19.9911 44.5715L20.0134 44.5328L20.0356 44.494L20.0578 44.4553L20.08 44.4165L20.1022 44.3778L20.1244 44.3391L20.1467 44.3003L20.1689 44.2616L20.1911 44.2228L20.2133 44.1841L20.2355 44.1453L20.2577 44.1066L20.28 44.0679L20.3022 44.0291L20.3244 43.9904L20.3466 43.9516L20.3688 43.9129L20.391 43.8742L20.4133 43.8354L20.4355 43.7967L20.4577 43.7579L20.4799 43.7192L20.5021 43.6805L20.5244 43.6417L20.5466 43.603L20.5688 43.5642L20.591 43.5255L20.6132 43.4867L20.6354 43.448L20.6577 43.4093L20.6799 43.3705L20.7021 43.3318L20.7243 43.293L20.7465 43.2543L20.7687 43.2156L20.791 43.1768L20.8132 43.1381L20.8354 43.0993L20.8576 43.0606L20.8798 43.0219L20.902 42.9831L20.9243 42.9444L20.9465 42.9056L20.9687 42.8669L20.9909 42.8281L21.0131 42.7894L21.0353 42.7507L21.0576 42.7119L21.0798 42.6732L21.102 42.6344L21.1242 42.5957L21.1464 42.557L21.1686 42.5182L21.1909 42.4795L21.2131 42.4407L21.2353 42.402L21.2575 42.3633L21.2797 42.3245L21.302 42.2858L21.3242 42.247L21.3464 42.2083L21.3686 42.1696L21.3908 42.1308L21.413 42.0921L21.4353 42.0533L21.4575 42.0146L21.4797 41.9758L21.5019 41.9371L21.5241 41.8984L21.5463 41.8596L21.5686 41.8209L21.5908 41.7821L21.613 41.7434L21.6352 41.7047L21.6574 41.6659L21.6796 41.6272L21.7019 41.5884L21.7241 41.5497L21.7463 41.511L21.7685 41.4722L21.7907 41.4335L21.8129 41.3947L21.8352 41.356L21.8574 41.3173L21.8796 41.2785L21.9018 41.2398L21.924 41.201L21.9462 41.1623L21.9685 41.1236L21.9907 41.0848L22.0129 41.0461L22.0351 41.0073L22.0573 40.9686L22.0795 40.9298L22.1018 40.8911L22.124 40.8524L22.1462 40.8136L22.1684 40.7749L22.1906 40.7361L22.2128 40.6974L22.2351 40.6587L22.2573 40.6199L22.2795 40.5812L22.3017 40.5424L22.3239 40.5037L22.3461 40.465L22.3684 40.4262L22.3906 40.3875L22.4128 40.3487L22.435 40.31L22.4572 40.2712L22.4795 40.2325L22.5017 40.1938L22.5239 40.155L22.5461 40.1163L22.5683 40.0775L22.5905 40.0388L22.6128 40.0001L22.635 39.9613L22.6572 39.9226L22.6794 39.8838L22.7016 39.8451L22.7238 39.8064L22.7461 39.7676L22.7683 39.7289L22.7905 39.6901L22.8127 39.6514L22.8349 39.6126L22.8571 39.5739L22.8794 39.5352L22.9016 39.4964L22.9238 39.4577L22.946 39.4189L22.9682 39.3802L22.9904 39.3415L23.0127 39.3027L23.0349 39.264L23.0571 39.2252L23.0793 39.1865L23.1015 39.1478L23.1237 39.109L23.146 39.0703L23.1682 39.0315L23.1904 38.9928L23.2126 38.9541L23.2348 38.9153L23.257 38.8766L23.2793 38.8378L23.3015 38.7991L23.3237 38.7603L23.3459 38.7216L23.3681 38.6829L23.3903 38.6441L23.4126 38.6054L23.4348 38.5666L23.457 38.5279L23.4792 38.4892L23.5014 38.4504L23.5236 38.4117L23.5459 38.3729L23.5681 38.3342L23.5903 38.2955L23.6125 38.2567L23.6347 38.218L23.657 38.1792L23.6792 38.1405L23.7014 38.1018L23.7236 38.063L23.7458 38.0243L23.768 37.9855L23.7903 37.9468L23.8125 37.908L23.8347 37.8693L23.8569 37.8306L23.8791 37.7918L23.9013 37.7531L23.9236 37.7143L23.9458 37.6756L23.968 37.6369L23.9902 37.5981L24.0124 37.5594L24.0346 37.5206L24.0569 37.4819L24.0791 37.4432L24.1013 37.4044L24.1235 37.3657L24.1457 37.3269L24.1679 37.2882L24.1902 37.2495L24.2124 37.2107L24.2346 37.172L24.2568 37.1332L24.279 37.0945L24.3012 37.0557L24.3235 37.017L24.3457 36.9783L24.3679 36.9395L24.3901 36.9008L24.4123 36.862L24.4346 36.8233L24.4568 36.7846L24.479 36.7458L24.5012 36.7071L24.5234 36.6683L24.5456 36.6296L24.5679 36.5909L24.5901 36.5521L24.6123 36.5134L24.6345 36.4746L24.6567 36.4359L24.6789 36.3971L24.7012 36.3584L24.7234 36.3197L24.7456 36.2809L24.7678 36.2422L24.79 36.2034L24.8122 36.1647L24.8345 36.126L24.8567 36.0872L24.8789 36.0485L24.9011 36.0097L24.9233 35.971L24.9455 35.9323L24.9678 35.8935L24.99 35.8548L25.0122 35.816L25.0344 35.7773L25.0566 35.7385L25.0788 35.6998L25.1011 35.6611L25.1233 35.6223L25.1455 35.5836L25.1677 35.5448L25.1899 35.5061L25.2121 35.4674L25.2344 35.4286L25.2566 35.3899L25.2788 35.3511L25.301 35.3124L25.3232 35.2737L25.3454 35.2349L25.3677 35.1962L25.3899 35.1574L25.4121 35.1187L25.4343 35.08L25.4565 35.0412L25.4787 35.0025L25.501 34.9637L25.5232 34.925L25.5454 34.8862L25.5676 34.8475L25.5898 34.8088L25.612 34.77L25.6343 34.7313L25.6565 34.6925L25.6787 34.6538L25.7009 34.6151L25.7231 34.5763L25.7453 34.5376L25.7676 34.4988L25.7898 34.4601L25.812 34.4214L25.8342 34.3826L25.8564 34.3439L25.8787 34.3051L25.9009 34.2664L25.9231 34.2277L25.9453 34.1889L25.9675 34.1502L25.9897 34.1114L26.012 34.0727L26.0342 34.034L26.0564 33.9952L26.0786 33.9565L26.1008 33.9177L26.123 33.879L26.1453 33.8402L26.1675 33.8015L26.1897 33.7628L26.2119 33.724L26.2341 33.6853L26.2563 33.6465L26.2786 33.6078L26.3008 33.5691L26.323 33.5303L26.3452 33.4916L26.3674 33.4528L26.3896 33.4141L26.4119 33.3754L26.4341 33.3366L26.4563 33.2979L26.4785 33.2591L26.5007 33.2204L26.5229 33.1816L26.5452 33.1429L26.5674 33.1042L26.5896 33.0654L26.6118 33.0267L26.634 32.9879L26.6563 32.9492L26.6785 32.9105L26.7007 32.8717L26.7229 32.833L26.7451 32.7942L26.7673 32.7555L26.7896 32.7168L26.8118 32.678L26.834 32.6393L26.8562 32.6005L26.8784 32.5618L26.9006 32.523L26.9229 32.4843L26.9451 32.4456L26.9673 32.4068L26.9895 32.3681L27.0117 32.3293L27.0339 32.2906L27.0562 32.2519L27.0784 32.2131L27.1006 32.1744L27.1228 32.1356L27.145 32.0969L27.1672 32.0582L27.1895 32.0194L27.2117 31.9807L27.2339 31.9419L27.2561 31.9032L27.2783 31.8645L27.3005 31.8257L27.3228 31.787L27.345 31.7482L27.3672 31.7095L27.3894 31.6707L27.4116 31.632L27.4338 31.5933L27.4561 31.5545L27.4783 31.5158L27.5005 31.477L27.5227 31.4383L27.5449 31.3996L27.5672 31.3608L27.5894 31.3221L27.6116 31.2833L27.6338 31.2446L27.656 31.2059L27.6782 31.1671L27.7005 31.1284L27.7227 31.0896L27.7449 31.0509L27.7671 31.0122L27.7893 30.9734L27.8115 30.9347L27.8338 30.8959L27.856 30.8572L27.8782 30.8184L27.9004 30.7797L27.9226 30.741L27.9448 30.7022L27.9671 30.6635L27.9893 30.6247L28.0115 30.586L28.0337 30.5473L28.0559 30.5085L28.0781 30.4698L28.1004 30.431L28.1226 30.3923L28.1448 30.3536L28.167 30.3148L28.1892 30.2761L28.2114 30.2373L28.2337 30.1986L28.2559 30.1599L28.2781 30.1211L28.3003 30.0824L28.3225 30.0436L28.3447 30.0049L28.367 29.9661L28.3892 29.9274L28.4114 29.8887L28.4336 29.8499L28.4558 29.8112L28.478 29.7724L28.5003 29.7337L28.5225 29.695L28.5447 29.6562L28.5669 29.6175L28.5891 29.5787L28.6113 29.54L28.6336 29.5013L28.6558 29.4625L28.678 29.4238L28.7002 29.385L28.7224 29.3463L28.7446 29.3075L28.7669 29.2688L28.7891 29.2301L28.8113 29.1913L28.8335 29.1526L28.8557 29.1138L28.8779 29.0751L28.9002 29.0364L28.9224 28.9976L28.9446 28.9589L28.9668 28.9201L28.989 28.8814L29.0113 28.8427L29.0335 28.8039L29.0557 28.7652L29.0779 28.7264L29.1001 28.6877L29.1223 28.6489Z" fill="#F8F8F1" fill-opacity="0.9"/>
<path fill-rule="evenodd" clip-rule="evenodd" d="M35.0037 13.1916L35.0058 13.1966L35.0133 13.2146L35.0442 13.289C35.0585 13.3234 35.0765 13.3666 35.0981 13.4181C35.1181 13.4658 35.1411 13.5207 35.167 13.5825C35.2748 13.8394 35.4332 14.2145 35.6333 14.683C36.0337 15.6207 36.6006 16.9302 37.2648 18.4149C38.6032 21.4068 40.3 25.026 41.8145 27.7521L43.3528 30.5211L37.8149 33.5978L36.2766 30.8288C34.6235 27.8533 32.8359 24.0286 31.4819 21.002C31.0877 20.121 30.7272 19.3005 30.4137 18.579C29.6365 18.9045 28.7473 19.268 27.7977 19.6399C24.796 20.8154 20.8213 22.2251 17.9238 22.6108L14.7839 23.0288L13.948 16.749L17.0879 16.331C21 15.5 23.1601 14.6524 25.4876 13.7409C26.9575 13.1652 28.281 12.6082 29.2374 12.1947C29.7149 11.9883 30.099 11.8185 30.362 11.7011C30.4935 11.6424 30.5946 11.5969 30.6618 11.5664L30.7367 11.5325L30.7543 11.5244L30.758 11.5228L33.7469 10.1543L35.0037 13.1916ZM29.1223 28.6489L30.6981 25.9011L25.2025 22.7495L23.6267 25.4973L23.6045 25.5361L23.5823 25.5748L23.5601 25.6136L23.5378 25.6523L23.5156 25.691L23.4934 25.7298L23.4712 25.7685L23.449 25.8073L23.4267 25.846L23.4045 25.8847L23.3823 25.9235L23.3601 25.9622L23.3379 26.001L23.3157 26.0397L23.2934 26.0785L23.2712 26.1172L23.249 26.1559L23.2268 26.1947L23.2046 26.2334L23.1824 26.2722L23.1601 26.3109L23.1379 26.3496L23.1157 26.3884L23.0935 26.4271L23.0713 26.4659L23.0491 26.5046L23.0268 26.5433L23.0046 26.5821L22.9824 26.6208L22.9602 26.6596L22.938 26.6983L22.9158 26.737L22.8935 26.7758L22.8713 26.8145L22.8491 26.8533L22.8269 26.892L22.8047 26.9308L22.7825 26.9695L22.7602 27.0082L22.738 27.047L22.7158 27.0857L22.6936 27.1245L22.6714 27.1632L22.6492 27.2019L22.6269 27.2407L22.6047 27.2794L22.5825 27.3182L22.5603 27.3569L22.5381 27.3956L22.5159 27.4344L22.4936 27.4731L22.4714 27.5119L22.4492 27.5506L22.427 27.5893L22.4048 27.6281L22.3825 27.6668L22.3603 27.7056L22.3381 27.7443L22.3159 27.7831L22.2937 27.8218L22.2715 27.8605L22.2492 27.8993L22.227 27.938L22.2048 27.9768L22.1826 28.0155L22.1604 28.0542L22.1382 28.093L22.1159 28.1317L22.0937 28.1705L22.0715 28.2092L22.0493 28.2479L22.0271 28.2867L22.0049 28.3254L21.9826 28.3642L21.9604 28.4029L21.9382 28.4417L21.916 28.4804L21.8938 28.5191L21.8716 28.5579L21.8493 28.5966L21.8271 28.6354L21.8049 28.6741L21.7827 28.7128L21.7605 28.7516L21.7383 28.7903L21.716 28.8291L21.6938 28.8678L21.6716 28.9065L21.6494 28.9453L21.6272 28.984L21.605 29.0228L21.5827 29.0615L21.5605 29.1003L21.5383 29.139L21.5161 29.1777L21.4939 29.2165L21.4717 29.2552L21.4494 29.294L21.4272 29.3327L21.405 29.3714L21.3828 29.4102L21.3606 29.4489L21.3384 29.4877L21.3161 29.5264L21.2939 29.5651L21.2717 29.6039L21.2495 29.6426L21.2273 29.6814L21.2051 29.7201L21.1828 29.7588L21.1606 29.7976L21.1384 29.8363L21.1162 29.8751L21.094 29.9138L21.0717 29.9526L21.0495 29.9913L21.0273 30.03L21.0051 30.0688L20.9829 30.1075L20.9607 30.1463L20.9384 30.185L20.9162 30.2237L20.894 30.2625L20.8718 30.3012L20.8496 30.34L20.8274 30.3787L20.8051 30.4174L20.7829 30.4562L20.7607 30.4949L20.7385 30.5337L20.7163 30.5724L20.6941 30.6111L20.6718 30.6499L20.6496 30.6886L20.6274 30.7274L20.6052 30.7661L20.583 30.8048L20.5608 30.8436L20.5385 30.8823L20.5163 30.9211L20.4941 30.9598L20.4719 30.9986L20.4497 31.0373L20.4275 31.076L20.4052 31.1148L20.383 31.1535L20.3608 31.1923L20.3386 31.231L20.3164 31.2697L20.2941 31.3085L20.2719 31.3472L20.2497 31.386L20.2275 31.4247L20.2053 31.4634L20.1831 31.5022L20.1608 31.5409L20.1386 31.5797L20.1164 31.6184L20.0942 31.6572L20.072 31.6959L20.0498 31.7346L20.0275 31.7734L20.0053 31.8121L19.9831 31.8509L19.9609 31.8896L19.9387 31.9283L19.9165 31.9671L19.8942 32.0058L19.872 32.0446L19.8498 32.0833L19.8276 32.122L19.8054 32.1608L19.7832 32.1995L19.7609 32.2383L19.7387 32.277L19.7165 32.3158L19.6943 32.3545L19.6721 32.3932L19.6499 32.432L19.6276 32.4707L19.6054 32.5095L19.5832 32.5482L19.561 32.5869L19.5388 32.6257L19.5166 32.6644L19.4943 32.7032L19.4721 32.7419L19.4499 32.7806L19.4277 32.8194L19.4055 32.8581L19.3833 32.8969L19.361 32.9356L19.3388 32.9743L19.3166 33.0131L19.2944 33.0518L19.2722 33.0906L19.25 33.1293L19.2277 33.1681L19.2055 33.2068L19.1833 33.2455L19.1611 33.2843L19.1389 33.323L19.1166 33.3618L19.0944 33.4005L19.0722 33.4392L19.05 33.478L19.0278 33.5167L19.0056 33.5555L18.9833 33.5942L18.9611 33.6329L18.9389 33.6717L18.9167 33.7104L18.8945 33.7492L18.8723 33.7879L18.85 33.8266L18.8278 33.8654L18.8056 33.9041L18.7834 33.9429L18.7612 33.9816L18.739 34.0204L18.7167 34.0591L18.6945 34.0978L18.6723 34.1366L18.6501 34.1753L18.6279 34.2141L18.6057 34.2528L18.5834 34.2915L18.5612 34.3303L18.539 34.369L18.5168 34.4078L18.4946 34.4465L18.4724 34.4852L18.4501 34.524L18.4279 34.5627L18.4057 34.6015L18.3835 34.6402L18.3613 34.6789L18.3391 34.7177L18.3168 34.7564L18.2946 34.7952L18.2724 34.8339L18.2502 34.8727L18.228 34.9114L18.2058 34.9501L18.1835 34.9889L18.1613 35.0276L18.1391 35.0664L18.1169 35.1051L18.0947 35.1438L18.0725 35.1826L18.0502 35.2213L18.028 35.2601L18.0058 35.2988L17.9836 35.3375L17.9614 35.3763L17.9391 35.415L17.9169 35.4538L17.8947 35.4925L17.8725 35.5312L17.8503 35.57L17.8281 35.6087L17.8058 35.6475L17.7836 35.6862L17.7614 35.725L17.7392 35.7637L17.717 35.8024L17.6948 35.8412L17.6725 35.8799L17.6503 35.9187L17.6281 35.9574L17.6059 35.9961L17.5837 36.0349L17.5615 36.0736L17.5392 36.1124L17.517 36.1511L17.4948 36.1898L17.4726 36.2286L17.4504 36.2673L17.4282 36.3061L17.4059 36.3448L17.3837 36.3836L17.3615 36.4223L17.3393 36.461L17.3171 36.4998L17.2949 36.5385L17.2726 36.5773L17.2504 36.616L17.2282 36.6547L17.206 36.6935L17.1838 36.7322L17.1615 36.771L17.1393 36.8097L17.1171 36.8484L17.0949 36.8872L17.0727 36.9259L17.0505 36.9647L17.0282 37.0034L17.006 37.0422L16.9838 37.0809L16.9616 37.1196L16.9394 37.1584L16.9172 37.1971L16.8949 37.2359L16.8727 37.2746L16.8505 37.3133L16.8283 37.3521L16.8061 37.3908L16.7839 37.4296L16.7616 37.4683L16.7394 37.507L16.7172 37.5458L16.695 37.5845L16.6728 37.6233L16.6506 37.662L16.6283 37.7007L16.6061 37.7395L16.5839 37.7782L16.5617 37.817L16.5395 37.8557L16.5173 37.8944L16.495 37.9332L16.4728 37.9719L16.4506 38.0107L16.4284 38.0494L16.4062 38.0882L16.384 38.1269L16.3617 38.1656L16.3395 38.2044L16.3173 38.2431L16.2951 38.2819L16.2729 38.3206L16.2507 38.3593L16.2284 38.3981L16.2062 38.4368L16.184 38.4756L16.1618 38.5143L16.1396 38.553L16.1174 38.5918L16.0951 38.6305L16.0729 38.6693L16.0507 38.708L16.0285 38.7467L16.0063 38.7855L15.9841 38.8242L15.9618 38.863L15.9396 38.9017L15.9174 38.9405L15.8952 38.9792L15.873 39.0179L15.8507 39.0567L15.8285 39.0954L15.8063 39.1342L15.7841 39.1729L15.7619 39.2116L15.7397 39.2504L15.7174 39.2891L15.6952 39.3279L15.673 39.3666L15.6508 39.4053L15.6286 39.4441L15.6064 39.4828L15.5841 39.5216L15.5619 39.5603L15.5397 39.5991L15.5175 39.6378L15.4953 39.6765L15.4731 39.7153L15.4508 39.754L15.4286 39.7928L15.4064 39.8315L15.3842 39.8702L15.362 39.909L15.3398 39.9477L15.3175 39.9865L15.2953 40.0252L15.2731 40.0639L15.2509 40.1027L15.2287 40.1414L15.2065 40.1802L15.1842 40.2189L15.162 40.2577L15.1398 40.2964L15.1176 40.3351L15.0954 40.3739L15.0732 40.4126L15.0509 40.4514L15.0287 40.4901L15.0065 40.5288L14.9843 40.5676L14.9621 40.6063L14.9398 40.6451L14.9176 40.6838L14.8954 40.7225L14.8732 40.7613L14.851 40.8L14.8288 40.8388L14.8065 40.8775L14.7843 40.9162L14.7621 40.955L14.7399 40.9937L14.7177 41.0325L14.6955 41.0712L14.6732 41.11L14.651 41.1487L14.6288 41.1874L14.6066 41.2262L14.5844 41.2649L14.5622 41.3037L14.5399 41.3424L14.5177 41.3811L14.4955 41.4199L14.4733 41.4586L14.4511 41.4974L14.4289 41.5361L14.4066 41.5748L14.3844 41.6136L14.3622 41.6523L14.34 41.6911L14.3178 41.7298L14.2956 41.7685L14.2733 41.8073L14.2511 41.846L14.2289 41.8848L14.2067 41.9235L14.1845 41.9623L14.1623 42.001L14.14 42.0397L14.1178 42.0785L14.0956 42.1172L14.0734 42.156L14.0512 42.1947L14.0289 42.2334L14.0067 42.2722L13.9845 42.3109L13.9623 42.3497L13.9401 42.3884L13.9179 42.4271L13.8956 42.4659L13.8734 42.5046L13.8512 42.5434L13.829 42.5821L13.8068 42.6208L13.7846 42.6596L13.7623 42.6983L13.7401 42.7371L13.7179 42.7758L13.6957 42.8146L13.6735 42.8533L13.6513 42.892L13.629 42.9308L13.6068 42.9695L13.5846 43.0083L13.5624 43.047L13.5402 43.0857L13.518 43.1245L13.4957 43.1632L13.4735 43.202L13.4513 43.2407L13.4291 43.2794L13.4069 43.3182L13.3847 43.3569L13.3624 43.3957L13.3402 43.4344L13.318 43.4732L13.2958 43.5119L13.2736 43.5506L13.2514 43.5894L13.2291 43.6281L13.2069 43.6669L13.1847 43.7056L13.1625 43.7443L13.1403 43.7831L13.1181 43.8218L13.0958 43.8606L13.0736 43.8993L13.0514 43.938L13.0292 43.9768L13.007 44.0155L12.9848 44.0543L12.9625 44.093L12.9403 44.1318L12.9181 44.1705L12.8959 44.2092L12.8737 44.248L12.8515 44.2867L12.8292 44.3255L12.807 44.3642L12.7848 44.4029L12.7626 44.4417L12.7404 44.4804L12.7182 44.5192L12.6959 44.5579L12.6737 44.5966L12.6515 44.6354L12.6293 44.6741L12.6071 44.7129L12.5848 44.7516L12.5626 44.7903L12.5404 44.8291L12.5182 44.8678L12.496 44.9066L12.4738 44.9453L12.4515 44.9841L12.4293 45.0228L12.4071 45.0615L12.3849 45.1003L12.3627 45.139L12.3405 45.1778L12.3182 45.2165L12.296 45.2552L12.2738 45.294L12.2516 45.3327L10.6758 48.0805L16.1714 51.2322L17.7472 48.4843L17.7694 48.4456L17.7917 48.4069L17.8139 48.3681L17.8361 48.3294L17.8583 48.2906L17.8805 48.2519L17.9027 48.2132L17.925 48.1744L17.9472 48.1357L17.9694 48.0969L17.9916 48.0582L18.0138 48.0194L18.036 47.9807L18.0583 47.942L18.0805 47.9032L18.1027 47.8645L18.1249 47.8257L18.1471 47.787L18.1694 47.7483L18.1916 47.7095L18.2138 47.6708L18.236 47.632L18.2582 47.5933L18.2804 47.5546L18.3027 47.5158L18.3249 47.4771L18.3471 47.4383L18.3693 47.3996L18.3915 47.3608L18.4137 47.3221L18.436 47.2834L18.4582 47.2446L18.4804 47.2059L18.5026 47.1671L18.5248 47.1284L18.547 47.0897L18.5693 47.0509L18.5915 47.0122L18.6137 46.9734L18.6359 46.9347L18.6581 46.896L18.6803 46.8572L18.7026 46.8185L18.7248 46.7797L18.747 46.741L18.7692 46.7022L18.7914 46.6635L18.8136 46.6248L18.8359 46.586L18.8581 46.5473L18.8803 46.5085L18.9025 46.4698L18.9247 46.4311L18.9469 46.3923L18.9692 46.3536L18.9914 46.3148L19.0136 46.2761L19.0358 46.2374L19.058 46.1986L19.0802 46.1599L19.1025 46.1211L19.1247 46.0824L19.1469 46.0437L19.1691 46.0049L19.1913 45.9662L19.2136 45.9274L19.2358 45.8887L19.258 45.8499L19.2802 45.8112L19.3024 45.7725L19.3246 45.7337L19.3469 45.695L19.3691 45.6562L19.3913 45.6175L19.4135 45.5788L19.4357 45.54L19.4579 45.5013L19.4802 45.4625L19.5024 45.4238L19.5246 45.3851L19.5468 45.3463L19.569 45.3076L19.5912 45.2688L19.6135 45.2301L19.6357 45.1914L19.6579 45.1526L19.6801 45.1139L19.7023 45.0751L19.7245 45.0364L19.7468 44.9976L19.769 44.9589L19.7912 44.9202L19.8134 44.8814L19.8356 44.8427L19.8578 44.8039L19.8801 44.7652L19.9023 44.7265L19.9245 44.6877L19.9467 44.649L19.9689 44.6102L19.9911 44.5715L20.0134 44.5328L20.0356 44.494L20.0578 44.4553L20.08 44.4165L20.1022 44.3778L20.1244 44.3391L20.1467 44.3003L20.1689 44.2616L20.1911 44.2228L20.2133 44.1841L20.2355 44.1453L20.2577 44.1066L20.28 44.0679L20.3022 44.0291L20.3244 43.9904L20.3466 43.9516L20.3688 43.9129L20.391 43.8742L20.4133 43.8354L20.4355 43.7967L20.4577 43.7579L20.4799 43.7192L20.5021 43.6805L20.5244 43.6417L20.5466 43.603L20.5688 43.5642L20.591 43.5255L20.6132 43.4867L20.6354 43.448L20.6577 43.4093L20.6799 43.3705L20.7021 43.3318L20.7243 43.293L20.7465 43.2543L20.7687 43.2156L20.791 43.1768L20.8132 43.1381L20.8354 43.0993L20.8576 43.0606L20.8798 43.0219L20.902 42.9831L20.9243 42.9444L20.9465 42.9056L20.9687 42.8669L20.9909 42.8281L21.0131 42.7894L21.0353 42.7507L21.0576 42.7119L21.0798 42.6732L21.102 42.6344L21.1242 42.5957L21.1464 42.557L21.1686 42.5182L21.1909 42.4795L21.2131 42.4407L21.2353 42.402L21.2575 42.3633L21.2797 42.3245L21.302 42.2858L21.3242 42.247L21.3464 42.2083L21.3686 42.1696L21.3908 42.1308L21.413 42.0921L21.4353 42.0533L21.4575 42.0146L21.4797 41.9758L21.5019 41.9371L21.5241 41.8984L21.5463 41.8596L21.5686 41.8209L21.5908 41.7821L21.613 41.7434L21.6352 41.7047L21.6574 41.6659L21.6796 41.6272L21.7019 41.5884L21.7241 41.5497L21.7463 41.511L21.7685 41.4722L21.7907 41.4335L21.8129 41.3947L21.8352 41.356L21.8574 41.3173L21.8796 41.2785L21.9018 41.2398L21.924 41.201L21.9462 41.1623L21.9685 41.1236L21.9907 41.0848L22.0129 41.0461L22.0351 41.0073L22.0573 40.9686L22.0795 40.9298L22.1018 40.8911L22.124 40.8524L22.1462 40.8136L22.1684 40.7749L22.1906 40.7361L22.2128 40.6974L22.2351 40.6587L22.2573 40.6199L22.2795 40.5812L22.3017 40.5424L22.3239 40.5037L22.3461 40.465L22.3684 40.4262L22.3906 40.3875L22.4128 40.3487L22.435 40.31L22.4572 40.2712L22.4795 40.2325L22.5017 40.1938L22.5239 40.155L22.5461 40.1163L22.5683 40.0775L22.5905 40.0388L22.6128 40.0001L22.635 39.9613L22.6572 39.9226L22.6794 39.8838L22.7016 39.8451L22.7238 39.8064L22.7461 39.7676L22.7683 39.7289L22.7905 39.6901L22.8127 39.6514L22.8349 39.6126L22.8571 39.5739L22.8794 39.5352L22.9016 39.4964L22.9238 39.4577L22.946 39.4189L22.9682 39.3802L22.9904 39.3415L23.0127 39.3027L23.0349 39.264L23.0571 39.2252L23.0793 39.1865L23.1015 39.1478L23.1237 39.109L23.146 39.0703L23.1682 39.0315L23.1904 38.9928L23.2126 38.9541L23.2348 38.9153L23.257 38.8766L23.2793 38.8378L23.3015 38.7991L23.3237 38.7603L23.3459 38.7216L23.3681 38.6829L23.3903 38.6441L23.4126 38.6054L23.4348 38.5666L23.457 38.5279L23.4792 38.4892L23.5014 38.4504L23.5236 38.4117L23.5459 38.3729L23.5681 38.3342L23.5903 38.2955L23.6125 38.2567L23.6347 38.218L23.657 38.1792L23.6792 38.1405L23.7014 38.1018L23.7236 38.063L23.7458 38.0243L23.768 37.9855L23.7903 37.9468L23.8125 37.908L23.8347 37.8693L23.8569 37.8306L23.8791 37.7918L23.9013 37.7531L23.9236 37.7143L23.9458 37.6756L23.968 37.6369L23.9902 37.5981L24.0124 37.5594L24.0346 37.5206L24.0569 37.4819L24.0791 37.4432L24.1013 37.4044L24.1235 37.3657L24.1457 37.3269L24.1679 37.2882L24.1902 37.2495L24.2124 37.2107L24.2346 37.172L24.2568 37.1332L24.279 37.0945L24.3012 37.0557L24.3235 37.017L24.3457 36.9783L24.3679 36.9395L24.3901 36.9008L24.4123 36.862L24.4346 36.8233L24.4568 36.7846L24.479 36.7458L24.5012 36.7071L24.5234 36.6683L24.5456 36.6296L24.5679 36.5909L24.5901 36.5521L24.6123 36.5134L24.6345 36.4746L24.6567 36.4359L24.6789 36.3971L24.7012 36.3584L24.7234 36.3197L24.7456 36.2809L24.7678 36.2422L24.79 36.2034L24.8122 36.1647L24.8345 36.126L24.8567 36.0872L24.8789 36.0485L24.9011 36.0097L24.9233 35.971L24.9455 35.9323L24.9678 35.8935L24.99 35.8548L25.0122 35.816L25.0344 35.7773L25.0566 35.7385L25.0788 35.6998L25.1011 35.6611L25.1233 35.6223L25.1455 35.5836L25.1677 35.5448L25.1899 35.5061L25.2121 35.4674L25.2344 35.4286L25.2566 35.3899L25.2788 35.3511L25.301 35.3124L25.3232 35.2737L25.3454 35.2349L25.3677 35.1962L25.3899 35.1574L25.4121 35.1187L25.4343 35.08L25.4565 35.0412L25.4787 35.0025L25.501 34.9637L25.5232 34.925L25.5454 34.8862L25.5676 34.8475L25.5898 34.8088L25.612 34.77L25.6343 34.7313L25.6565 34.6925L25.6787 34.6538L25.7009 34.6151L25.7231 34.5763L25.7453 34.5376L25.7676 34.4988L25.7898 34.4601L25.812 34.4214L25.8342 34.3826L25.8564 34.3439L25.8787 34.3051L25.9009 34.2664L25.9231 34.2277L25.9453 34.1889L25.9675 34.1502L25.9897 34.1114L26.012 34.0727L26.0342 34.034L26.0564 33.9952L26.0786 33.9565L26.1008 33.9177L26.123 33.879L26.1453 33.8402L26.1675 33.8015L26.1897 33.7628L26.2119 33.724L26.2341 33.6853L26.2563 33.6465L26.2786 33.6078L26.3008 33.5691L26.323 33.5303L26.3452 33.4916L26.3674 33.4528L26.3896 33.4141L26.4119 33.3754L26.4341 33.3366L26.4563 33.2979L26.4785 33.2591L26.5007 33.2204L26.5229 33.1816L26.5452 33.1429L26.5674 33.1042L26.5896 33.0654L26.6118 33.0267L26.634 32.9879L26.6563 32.9492L26.6785 32.9105L26.7007 32.8717L26.7229 32.833L26.7451 32.7942L26.7673 32.7555L26.7896 32.7168L26.8118 32.678L26.834 32.6393L26.8562 32.6005L26.8784 32.5618L26.9006 32.523L26.9229 32.4843L26.9451 32.4456L26.9673 32.4068L26.9895 32.3681L27.0117 32.3293L27.0339 32.2906L27.0562 32.2519L27.0784 32.2131L27.1006 32.1744L27.1228 32.1356L27.145 32.0969L27.1672 32.0582L27.1895 32.0194L27.2117 31.9807L27.2339 31.9419L27.2561 31.9032L27.2783 31.8645L27.3005 31.8257L27.3228 31.787L27.345 31.7482L27.3672 31.7095L27.3894 31.6707L27.4116 31.632L27.4338 31.5933L27.4561 31.5545L27.4783 31.5158L27.5005 31.477L27.5227 31.4383L27.5449 31.3996L27.5672 31.3608L27.5894 31.3221L27.6116 31.2833L27.6338 31.2446L27.656 31.2059L27.6782 31.1671L27.7005 31.1284L27.7227 31.0896L27.7449 31.0509L27.7671 31.0122L27.7893 30.9734L27.8115 30.9347L27.8338 30.8959L27.856 30.8572L27.8782 30.8184L27.9004 30.7797L27.9226 30.741L27.9448 30.7022L27.9671 30.6635L27.9893 30.6247L28.0115 30.586L28.0337 30.5473L28.0559 30.5085L28.0781 30.4698L28.1004 30.431L28.1226 30.3923L28.1448 30.3536L28.167 30.3148L28.1892 30.2761L28.2114 30.2373L28.2337 30.1986L28.2559 30.1599L28.2781 30.1211L28.3003 30.0824L28.3225 30.0436L28.3447 30.0049L28.367 29.9661L28.3892 29.9274L28.4114 29.8887L28.4336 29.8499L28.4558 29.8112L28.478 29.7724L28.5003 29.7337L28.5225 29.695L28.5447 29.6562L28.5669 29.6175L28.5891 29.5787L28.6113 29.54L28.6336 29.5013L28.6558 29.4625L28.678 29.4238L28.7002 29.385L28.7224 29.3463L28.7446 29.3075L28.7669 29.2688L28.7891 29.2301L28.8113 29.1913L28.8335 29.1526L28.8557 29.1138L28.8779 29.0751L28.9002 29.0364L28.9224 28.9976L28.9446 28.9589L28.9668 28.9201L28.989 28.8814L29.0113 28.8427L29.0335 28.8039L29.0557 28.7652L29.0779 28.7264L29.1001 28.6877L29.1223 28.6489Z" stroke="black" stroke-width="14.9254" mask="url(#path-1-outside-1)"/>
</svg>
