<svg width="140" height="140" viewBox="0 0 140 140" fill="none" xmlns="http://www.w3.org/2000/svg">
<rect x="1" y="1" width="138" height="138" fill="#F8F8F1" fill-opacity="0.95"/>
<path d="M85.631 23.9004L83.231 29.1204L80.831 23.9004H78.831V37.9004H80.831V28.3004L82.691 32.2604H83.771L85.631 28.3004V37.9004H87.631V23.9004H85.631ZM96.0232 37.9004C98.0232 37.9004 99.6232 36.2604 99.6232 34.2804V27.5004C99.6232 25.5004 98.0232 23.9004 96.0232 23.9004H94.4232C92.4432 23.9004 90.8232 25.5004 90.8232 27.5004V34.2804C90.8232 36.2604 92.4432 37.9004 94.4232 37.9004H96.0232ZM96.0232 35.8804H94.4232C93.5432 35.8804 92.8232 35.1604 92.8232 34.2804V27.5004C92.8232 26.6204 93.5232 25.9004 94.4232 25.9004H96.0232C96.9232 25.9004 97.6232 26.6004 97.6232 27.5004V34.2804C97.6232 35.1604 96.9032 35.8804 96.0232 35.8804ZM109.615 23.9004V28.1404L107.235 34.7404H107.195L104.815 28.1404V23.9004H102.815V28.5004L106.215 37.9004H108.215L111.615 28.5004V23.9004H109.615ZM123.608 25.9004V23.9004H114.808V25.9004V31.5604V37.9004H123.608V35.9004H116.808V31.5604H122.808V29.5604H116.808V25.9004H123.608ZM63.6467 87.7004V86.5004C63.6467 84.5004 62.0467 82.9004 60.0467 82.9004H56.8467H54.8467V96.9004H56.8467V91.3004H58.9067L61.4467 96.9004H63.6467L61.0267 91.1604C62.5467 90.7404 63.6467 89.3604 63.6467 87.7004ZM61.6467 87.7004C61.6467 88.6004 60.9467 89.3004 60.0467 89.3004H56.8467V84.9004H60.0467C60.9467 84.9004 61.6467 85.6004 61.6467 86.5004V87.7004ZM72.0388 96.9004C74.0388 96.9004 75.6388 95.2604 75.6388 93.2804V86.5004C75.6388 84.5004 74.0388 82.9004 72.0388 82.9004H70.4388C68.4588 82.9004 66.8388 84.5004 66.8388 86.5004V93.2804C66.8388 95.2604 68.4588 96.9004 70.4388 96.9004H72.0388ZM72.0388 94.8804H70.4388C69.5588 94.8804 68.8388 94.1604 68.8388 93.2804V86.5004C68.8388 85.6204 69.5388 84.9004 70.4388 84.9004H72.0388C72.9388 84.9004 73.6388 85.6004 73.6388 86.5004V93.2804C73.6388 94.1604 72.9188 94.8804 72.0388 94.8804ZM87.631 82.9004H84.231H78.831V84.9004H82.231V96.9004H84.231V84.9004H87.631V82.9004ZM96.2232 82.9004H94.2232L90.8232 92.3004V96.9004H92.8232V93.6604H97.6232V96.9004H99.6232V92.3004L96.2232 82.9004ZM95.2032 86.0604H95.2432L97.2632 91.6604H93.1832L95.2032 86.0604ZM111.615 82.9004H108.215H102.815V84.9004H106.215V96.9004H108.215V84.9004H111.615V82.9004ZM123.608 84.9004V82.9004H114.808V84.9004V90.5604V96.9004H123.608V94.9004H116.808V90.5604H122.808V88.5604H116.808V84.9004H123.608Z" fill="#5B5B5B"/>
<path d="M25.2201 53.9504V54.1004H26.7201V53.9504C26.7201 52.4504 25.5201 51.2504 24.0201 51.2504H22.8201C21.3351 51.2504 20.1201 52.4504 20.1201 53.9504V56.1854C20.1201 57.6704 21.3351 58.9004 22.8201 58.9004H24.0201C25.5201 58.9004 26.7201 57.6704 26.7201 56.1854V56.0354H25.2201V56.1854C25.2201 56.8454 24.6801 57.3854 24.0201 57.3854H22.8201C22.1601 57.3854 21.6201 56.8454 21.6201 56.1854V53.9504C21.6201 53.2904 22.1451 52.7504 22.8201 52.7504H24.0201C24.6951 52.7504 25.2201 53.2754 25.2201 53.9504ZM32.9392 57.4004V48.2504H28.9642V49.7504H31.4392V57.4004H28.9642V58.9004H31.4392H35.5642V57.4004H32.9392ZM41.7834 48.4004H40.1334V49.9004H41.7834V48.4004ZM41.7834 57.4004V51.2504H37.8084V52.7504H40.2834V57.4004H37.8084V58.9004H40.2834H44.4084V57.4004H41.7834ZM51.7525 53.9504V54.1004H53.2525V53.9504C53.2525 52.4504 52.0525 51.2504 50.5525 51.2504H49.3525C47.8675 51.2504 46.6525 52.4504 46.6525 53.9504V56.1854C46.6525 57.6704 47.8675 58.9004 49.3525 58.9004H50.5525C52.0525 58.9004 53.2525 57.6704 53.2525 56.1854V56.0354H51.7525V56.1854C51.7525 56.8454 51.2125 57.3854 50.5525 57.3854H49.3525C48.6925 57.3854 48.1525 56.8454 48.1525 56.1854V53.9504C48.1525 53.2904 48.6775 52.7504 49.3525 52.7504H50.5525C51.2275 52.7504 51.7525 53.2754 51.7525 53.9504ZM62.0967 51.2504H60.3267L58.3917 54.3254H56.9967V48.2504H55.4967V58.9004H56.9967V55.8254H58.3917L60.3267 58.9004H62.0967L59.6967 55.0754L62.0967 51.2504ZM79.1849 54.1454H77.2349V52.1954H75.7349V54.1454H73.7849V55.6454H75.7349V57.5954H77.2349V55.6454H79.1849V54.1454ZM95.9732 48.2504V52.0904L94.7282 51.2504H93.5732C92.0882 51.2504 90.8732 52.4504 90.8732 53.9504V56.2004C90.8732 57.6854 92.0882 58.9004 93.5732 58.9004H94.7282L95.9732 58.0604V58.9004H97.4732V48.2504H95.9732ZM94.2632 57.4004H93.5732C92.9132 57.4004 92.3732 56.8604 92.3732 56.2004V53.9504C92.3732 53.2904 92.9132 52.7504 93.5732 52.7504H94.2632L95.9732 53.9054V56.2454L94.2632 57.4004ZM103.617 51.2504H103.002L101.217 52.4504V51.2504H99.7174V58.9004H101.217V54.2654L103.467 52.7504H103.617C104.277 52.7504 104.817 53.2904 104.817 53.9504V54.5504H106.317V53.9504C106.317 52.4504 105.102 51.2504 103.617 51.2504ZM113.661 51.2504V52.0904L112.416 51.2504H111.261C109.776 51.2504 108.561 52.4504 108.561 53.9504V56.2004C108.561 57.6854 109.776 58.9004 111.261 58.9004H112.416L113.661 58.0604V58.9004H115.161V51.2504H113.661ZM111.951 57.4004H111.261C110.601 57.4004 110.061 56.8604 110.061 56.2004V53.9504C110.061 53.2904 110.601 52.7504 111.261 52.7504H111.951L113.661 53.9054V56.2454L111.951 57.4004ZM122.506 51.2504V52.0904L121.261 51.2504H120.106C118.621 51.2504 117.406 52.4504 117.406 53.9504V56.2004C117.406 57.6854 118.621 58.9004 120.106 58.9004H121.261L122.506 58.0604V59.3354C122.506 59.9954 121.966 60.5354 121.306 60.5354H120.106C119.446 60.5354 118.906 59.9954 118.906 59.3354H117.406C117.406 60.8204 118.621 62.0504 120.106 62.0504H121.306C122.806 62.0504 124.006 60.8204 124.006 59.3354V51.2504H122.506ZM120.796 57.4004H120.106C119.446 57.4004 118.906 56.8604 118.906 56.2004V53.9504C118.906 53.2904 119.446 52.7504 120.106 52.7504H120.796L122.506 53.9054V56.2454L120.796 57.4004ZM20.1201 115.38V115.68C20.1201 116.955 21.2001 117.9 22.6551 117.9H24.1701C25.6851 117.9 26.7201 117.045 26.7201 115.785C26.7201 112.725 21.7251 113.49 21.7251 112.275C21.7251 111.96 21.9951 111.75 22.6251 111.75H24.0651C24.5901 111.75 24.9651 112.065 24.9651 112.485V112.62H26.4651V112.485C26.4651 111.225 25.4151 110.25 24.0651 110.25H22.6251C21.2001 110.25 20.2251 111.06 20.2251 112.275C20.2251 115.185 25.2201 114.09 25.2201 115.785C25.2201 116.16 24.8751 116.4 24.1701 116.4H22.6551C22.0101 116.4 21.6201 116.1 21.6201 115.68V115.38H20.1201ZM32.8642 110.25H31.7092L30.4642 111.09V107.25H28.9642V117.9H30.4642V112.905L32.1742 111.75H32.8642C33.5242 111.75 34.0642 112.29 34.0642 112.95V117.9H35.5642V112.95C35.5642 111.45 34.3492 110.25 32.8642 110.25ZM41.7834 107.4H40.1334V108.9H41.7834V107.4ZM41.7834 116.4V110.25H37.8084V111.75H40.2834V116.4H37.8084V117.9H40.2834H44.4084V116.4H41.7834ZM51.8275 108.75H53.2525V107.25H51.8275C50.3275 107.25 49.1275 108.45 49.1275 109.95V110.7H46.6525V112.2H49.1275V117.9H50.6275V112.2H53.2525V110.7H50.6275V109.95C50.6275 109.275 51.1525 108.75 51.8275 108.75ZM62.0967 111.75V110.25H59.3217V108.3H57.8217V110.25H55.4967V111.75H57.8217V115.2C57.8217 116.7 59.0217 117.9 60.5217 117.9H62.0967V116.4H60.5217C59.8467 116.4 59.3217 115.875 59.3217 115.2V111.75H62.0967ZM79.1849 113.145H77.2349V111.195H75.7349V113.145H73.7849V114.645H75.7349V116.595H77.2349V114.645H79.1849V113.145ZM95.9732 107.25V111.09L94.7282 110.25H93.5732C92.0882 110.25 90.8732 111.45 90.8732 112.95V115.2C90.8732 116.685 92.0882 117.9 93.5732 117.9H94.7282L95.9732 117.06V117.9H97.4732V107.25H95.9732ZM94.2632 116.4H93.5732C92.9132 116.4 92.3732 115.86 92.3732 115.2V112.95C92.3732 112.29 92.9132 111.75 93.5732 111.75H94.2632L95.9732 112.905V115.245L94.2632 116.4ZM103.617 110.25H103.002L101.217 111.45V110.25H99.7174V117.9H101.217V113.265L103.467 111.75H103.617C104.277 111.75 104.817 112.29 104.817 112.95V113.55H106.317V112.95C106.317 111.45 105.102 110.25 103.617 110.25ZM113.661 110.25V111.09L112.416 110.25H111.261C109.776 110.25 108.561 111.45 108.561 112.95V115.2C108.561 116.685 109.776 117.9 111.261 117.9H112.416L113.661 117.06V117.9H115.161V110.25H113.661ZM111.951 116.4H111.261C110.601 116.4 110.061 115.86 110.061 115.2V112.95C110.061 112.29 110.601 111.75 111.261 111.75H111.951L113.661 112.905V115.245L111.951 116.4ZM122.506 110.25V111.09L121.261 110.25H120.106C118.621 110.25 117.406 111.45 117.406 112.95V115.2C117.406 116.685 118.621 117.9 120.106 117.9H121.261L122.506 117.06V118.335C122.506 118.995 121.966 119.535 121.306 119.535H120.106C119.446 119.535 118.906 118.995 118.906 118.335H117.406C117.406 119.82 118.621 121.05 120.106 121.05H121.306C122.806 121.05 124.006 119.82 124.006 118.335V110.25H122.506ZM120.796 116.4H120.106C119.446 116.4 118.906 115.86 118.906 115.2V112.95C118.906 112.29 119.446 111.75 120.106 111.75H120.796L122.506 112.905V115.245L120.796 116.4Z" fill="black"/>
<path d="M3 35V3H35" stroke="black" stroke-width="5"/>
<path d="M105 3L137 3L137 35" stroke="black" stroke-width="5"/>
<path d="M137 105L137 137L105 137" stroke="black" stroke-width="5"/>
<path d="M35 137L3 137L3 105" stroke="black" stroke-width="5"/>
</svg>
