<svg width="140" height="140" viewBox="0 0 140 140" fill="none" xmlns="http://www.w3.org/2000/svg">
<rect x="2.4738" y="2.4738" width="135.052" height="135.052" fill="#DBFF00" fill-opacity="0.25" stroke="black" stroke-width="4.9476" stroke-dasharray="121 121"/>
<path d="M86.4313 24L84.0313 29.22L81.6313 24H79.6313V38H81.6313V28.4L83.4913 32.36H84.5713L86.4313 28.4V38H88.4313V24H86.4313ZM96.8234 38C98.8234 38 100.423 36.36 100.423 34.38V27.6C100.423 25.6 98.8234 24 96.8234 24H95.2234C93.2434 24 91.6234 25.6 91.6234 27.6V34.38C91.6234 36.36 93.2434 38 95.2234 38H96.8234ZM96.8234 35.98H95.2234C94.3434 35.98 93.6234 35.26 93.6234 34.38V27.6C93.6234 26.72 94.3234 26 95.2234 26H96.8234C97.7234 26 98.4234 26.7 98.4234 27.6V34.38C98.4234 35.26 97.7034 35.98 96.8234 35.98ZM110.416 24V28.24L108.036 34.84H107.996L105.616 28.24V24H103.616V28.6L107.016 38H109.016L112.416 28.6V24H110.416ZM124.408 26V24H115.608V26V31.66V38H124.408V36H117.608V31.66H123.608V29.66H117.608V26H124.408ZM64.4469 87.8V86.6C64.4469 84.6 62.8469 83 60.8469 83H57.6469H55.6469V97H57.6469V91.4H59.7069L62.2469 97H64.4469L61.8269 91.26C63.3469 90.84 64.4469 89.46 64.4469 87.8ZM62.4469 87.8C62.4469 88.7 61.7469 89.4 60.8469 89.4H57.6469V85H60.8469C61.7469 85 62.4469 85.7 62.4469 86.6V87.8ZM72.8391 97C74.8391 97 76.4391 95.36 76.4391 93.38V86.6C76.4391 84.6 74.8391 83 72.8391 83H71.2391C69.2591 83 67.6391 84.6 67.6391 86.6V93.38C67.6391 95.36 69.2591 97 71.2391 97H72.8391ZM72.8391 94.98H71.2391C70.3591 94.98 69.6391 94.26 69.6391 93.38V86.6C69.6391 85.72 70.3391 85 71.2391 85H72.8391C73.7391 85 74.4391 85.7 74.4391 86.6V93.38C74.4391 94.26 73.7191 94.98 72.8391 94.98ZM88.4313 83H85.0313H79.6313V85H83.0312V97H85.0313V85H88.4313V83ZM97.0234 83H95.0234L91.6234 92.4V97H93.6234V93.76H98.4234V97H100.423V92.4L97.0234 83ZM96.0034 86.16H96.0434L98.0634 91.76H93.9834L96.0034 86.16ZM112.416 83H109.016H103.616V85H107.016V97H109.016V85H112.416V83ZM124.408 85V83H115.608V85V90.66V97H124.408V95H117.608V90.66H123.608V88.66H117.608V85H124.408Z" fill="#5B5B5B"/>
<path d="M26.0203 54.05V54.2H27.5203V54.05C27.5203 52.55 26.3203 51.35 24.8203 51.35H23.6203C22.1353 51.35 20.9203 52.55 20.9203 54.05V56.285C20.9203 57.77 22.1353 59 23.6203 59H24.8203C26.3203 59 27.5203 57.77 27.5203 56.285V56.135H26.0203V56.285C26.0203 56.945 25.4803 57.485 24.8203 57.485H23.6203C22.9603 57.485 22.4203 56.945 22.4203 56.285V54.05C22.4203 53.39 22.9453 52.85 23.6203 52.85H24.8203C25.4953 52.85 26.0203 53.375 26.0203 54.05ZM33.7395 57.5V48.35H29.7645V49.85H32.2395V57.5H29.7645V59H32.2395H36.3645V57.5H33.7395ZM42.5836 48.5H40.9336V50H42.5836V48.5ZM42.5836 57.5V51.35H38.6086V52.85H41.0836V57.5H38.6086V59H41.0836H45.2086V57.5H42.5836ZM52.5527 54.05V54.2H54.0527V54.05C54.0527 52.55 52.8527 51.35 51.3527 51.35H50.1527C48.6677 51.35 47.4527 52.55 47.4527 54.05V56.285C47.4527 57.77 48.6677 59 50.1527 59H51.3527C52.8527 59 54.0527 57.77 54.0527 56.285V56.135H52.5527V56.285C52.5527 56.945 52.0127 57.485 51.3527 57.485H50.1527C49.4927 57.485 48.9527 56.945 48.9527 56.285V54.05C48.9527 53.39 49.4777 52.85 50.1527 52.85H51.3527C52.0277 52.85 52.5527 53.375 52.5527 54.05ZM62.8969 51.35H61.1269L59.1919 54.425H57.7969V48.35H56.2969V59H57.7969V55.925H59.1919L61.1269 59H62.8969L60.4969 55.175L62.8969 51.35ZM79.9852 54.245H78.0352V52.295H76.5352V54.245H74.5852V55.745H76.5352V57.695H78.0352V55.745H79.9852V54.245ZM96.7734 48.35V52.19L95.5284 51.35H94.3734C92.8884 51.35 91.6734 52.55 91.6734 54.05V56.3C91.6734 57.785 92.8884 59 94.3734 59H95.5284L96.7734 58.16V59H98.2734V48.35H96.7734ZM95.0634 57.5H94.3734C93.7134 57.5 93.1734 56.96 93.1734 56.3V54.05C93.1734 53.39 93.7134 52.85 94.3734 52.85H95.0634L96.7734 54.005V56.345L95.0634 57.5ZM104.418 51.35H103.803L102.018 52.55V51.35H100.518V59H102.018V54.365L104.268 52.85H104.418C105.078 52.85 105.618 53.39 105.618 54.05V54.65H107.118V54.05C107.118 52.55 105.903 51.35 104.418 51.35ZM114.462 51.35V52.19L113.217 51.35H112.062C110.577 51.35 109.362 52.55 109.362 54.05V56.3C109.362 57.785 110.577 59 112.062 59H113.217L114.462 58.16V59H115.962V51.35H114.462ZM112.752 57.5H112.062C111.402 57.5 110.862 56.96 110.862 56.3V54.05C110.862 53.39 111.402 52.85 112.062 52.85H112.752L114.462 54.005V56.345L112.752 57.5ZM123.306 51.35V52.19L122.061 51.35H120.906C119.421 51.35 118.206 52.55 118.206 54.05V56.3C118.206 57.785 119.421 59 120.906 59H122.061L123.306 58.16V59.435C123.306 60.095 122.766 60.635 122.106 60.635H120.906C120.246 60.635 119.706 60.095 119.706 59.435H118.206C118.206 60.92 119.421 62.15 120.906 62.15H122.106C123.606 62.15 124.806 60.92 124.806 59.435V51.35H123.306ZM121.596 57.5H120.906C120.246 57.5 119.706 56.96 119.706 56.3V54.05C119.706 53.39 120.246 52.85 120.906 52.85H121.596L123.306 54.005V56.345L121.596 57.5ZM20.9203 115.48V115.78C20.9203 117.055 22.0003 118 23.4553 118H24.9703C26.4853 118 27.5203 117.145 27.5203 115.885C27.5203 112.825 22.5253 113.59 22.5253 112.375C22.5253 112.06 22.7953 111.85 23.4253 111.85H24.8653C25.3903 111.85 25.7653 112.165 25.7653 112.585V112.72H27.2653V112.585C27.2653 111.325 26.2153 110.35 24.8653 110.35H23.4253C22.0003 110.35 21.0253 111.16 21.0253 112.375C21.0253 115.285 26.0203 114.19 26.0203 115.885C26.0203 116.26 25.6753 116.5 24.9703 116.5H23.4553C22.8103 116.5 22.4203 116.2 22.4203 115.78V115.48H20.9203ZM33.6645 110.35H32.5095L31.2645 111.19V107.35H29.7645V118H31.2645V113.005L32.9745 111.85H33.6645C34.3245 111.85 34.8645 112.39 34.8645 113.05V118H36.3645V113.05C36.3645 111.55 35.1495 110.35 33.6645 110.35ZM42.5836 107.5H40.9336V109H42.5836V107.5ZM42.5836 116.5V110.35H38.6086V111.85H41.0836V116.5H38.6086V118H41.0836H45.2086V116.5H42.5836ZM52.6277 108.85H54.0527V107.35H52.6277C51.1277 107.35 49.9277 108.55 49.9277 110.05V110.8H47.4527V112.3H49.9277V118H51.4277V112.3H54.0527V110.8H51.4277V110.05C51.4277 109.375 51.9527 108.85 52.6277 108.85ZM62.8969 111.85V110.35H60.1219V108.4H58.6219V110.35H56.2969V111.85H58.6219V115.3C58.6219 116.8 59.8219 118 61.3219 118H62.8969V116.5H61.3219C60.6469 116.5 60.1219 115.975 60.1219 115.3V111.85H62.8969ZM79.9852 113.245H78.0352V111.295H76.5352V113.245H74.5852V114.745H76.5352V116.695H78.0352V114.745H79.9852V113.245ZM96.7734 107.35V111.19L95.5284 110.35H94.3734C92.8884 110.35 91.6734 111.55 91.6734 113.05V115.3C91.6734 116.785 92.8884 118 94.3734 118H95.5284L96.7734 117.16V118H98.2734V107.35H96.7734ZM95.0634 116.5H94.3734C93.7134 116.5 93.1734 115.96 93.1734 115.3V113.05C93.1734 112.39 93.7134 111.85 94.3734 111.85H95.0634L96.7734 113.005V115.345L95.0634 116.5ZM104.418 110.35H103.803L102.018 111.55V110.35H100.518V118H102.018V113.365L104.268 111.85H104.418C105.078 111.85 105.618 112.39 105.618 113.05V113.65H107.118V113.05C107.118 111.55 105.903 110.35 104.418 110.35ZM114.462 110.35V111.19L113.217 110.35H112.062C110.577 110.35 109.362 111.55 109.362 113.05V115.3C109.362 116.785 110.577 118 112.062 118H113.217L114.462 117.16V118H115.962V110.35H114.462ZM112.752 116.5H112.062C111.402 116.5 110.862 115.96 110.862 115.3V113.05C110.862 112.39 111.402 111.85 112.062 111.85H112.752L114.462 113.005V115.345L112.752 116.5ZM123.306 110.35V111.19L122.061 110.35H120.906C119.421 110.35 118.206 111.55 118.206 113.05V115.3C118.206 116.785 119.421 118 120.906 118H122.061L123.306 117.16V118.435C123.306 119.095 122.766 119.635 122.106 119.635H120.906C120.246 119.635 119.706 119.095 119.706 118.435H118.206C118.206 119.92 119.421 121.15 120.906 121.15H122.106C123.606 121.15 124.806 119.92 124.806 118.435V110.35H123.306ZM121.596 116.5H120.906C120.246 116.5 119.706 115.96 119.706 115.3V113.05C119.706 112.39 120.246 111.85 120.906 111.85H121.596L123.306 113.005V115.345L121.596 116.5Z" fill="black"/>
</svg>
