<svg width="148" height="148" viewBox="0 0 148 148" fill="none" xmlns="http://www.w3.org/2000/svg">
<mask id="path-1-inside-1" fill="white">
<path fill-rule="evenodd" clip-rule="evenodd" d="M147.015 0.984375L0 0.984375L0 147.999H147.015V0.984375ZM95.2621 80.8381L100.1 79.576L97.576 69.8998L92.7379 71.1619C87.5344 72.5193 80.2652 73.1301 72.5123 73.5964C71.1046 73.6811 69.6778 73.761 68.2502 73.841L68.2498 73.841C62.1049 74.1852 55.9462 74.5302 51.2368 75.2576L46.2954 76.0209L47.8218 85.9037L52.7632 85.1404C56.9417 84.495 62.4452 84.1851 68.5525 83.8411C70.0402 83.7573 71.5638 83.6715 73.1127 83.5784C80.7348 83.1199 88.9656 82.4807 95.2621 80.8381Z"/>
</mask>
<path fill-rule="evenodd" clip-rule="evenodd" d="M147.015 0.984375L0 0.984375L0 147.999H147.015V0.984375ZM95.2621 80.8381L100.1 79.576L97.576 69.8998L92.7379 71.1619C87.5344 72.5193 80.2652 73.1301 72.5123 73.5964C71.1046 73.6811 69.6778 73.761 68.2502 73.841L68.2498 73.841C62.1049 74.1852 55.9462 74.5302 51.2368 75.2576L46.2954 76.0209L47.8218 85.9037L52.7632 85.1404C56.9417 84.495 62.4452 84.1851 68.5525 83.8411C70.0402 83.7573 71.5638 83.6715 73.1127 83.5784C80.7348 83.1199 88.9656 82.4807 95.2621 80.8381Z" fill="#E01010" fill-opacity="0.7"/>
<path d="M0 0.984375L0 -6.47831L-7.46269 -6.47831L-7.46269 0.984375L0 0.984375ZM147.015 0.984375L154.478 0.984375V-6.47831L147.015 -6.47831V0.984375ZM0 147.999H-7.46269L-7.46269 155.462H0L0 147.999ZM147.015 147.999V155.462H154.478V147.999H147.015ZM100.1 79.576L101.984 86.797L109.205 84.9132L107.321 77.6922L100.1 79.576ZM95.2621 80.8381L97.1459 88.0591L97.1459 88.0591L95.2621 80.8381ZM97.576 69.8998L104.797 68.0161L102.913 60.795L95.6922 62.6788L97.576 69.8998ZM92.7379 71.1619L94.6216 78.3829L94.6216 78.3829L92.7379 71.1619ZM72.5123 73.5964L72.0643 66.1472L72.0643 66.1472L72.5123 73.5964ZM68.2502 73.841L67.8328 66.39L67.8088 66.3913L67.7847 66.3928L68.2502 73.841ZM68.2498 73.841L68.6672 81.292L68.6913 81.2906L68.7153 81.2891L68.2498 73.841ZM51.2368 75.2576L52.3759 82.6329L52.3759 82.6329L51.2368 75.2576ZM46.2954 76.0209L45.1562 68.6456L37.781 69.7848L38.9201 77.16L46.2954 76.0209ZM47.8218 85.9037L40.4466 87.0429L41.5858 94.4181L48.961 93.2789L47.8218 85.9037ZM52.7632 85.1404L51.6241 77.7652L51.6241 77.7652L52.7632 85.1404ZM68.5525 83.8411L68.1329 76.3902L68.1329 76.3902L68.5525 83.8411ZM73.1127 83.5784L73.5607 91.0276L73.5607 91.0276L73.1127 83.5784ZM0 8.44706L147.015 8.44706V-6.47831L0 -6.47831L0 8.44706ZM7.46269 147.999L7.46269 0.984375L-7.46269 0.984375L-7.46269 147.999H7.46269ZM147.015 140.537H0L0 155.462H147.015V140.537ZM139.552 0.984375V147.999H154.478V0.984375L139.552 0.984375ZM98.2164 72.355L93.3784 73.6171L97.1459 88.0591L101.984 86.797L98.2164 72.355ZM90.355 71.7836L92.8792 81.4597L107.321 77.6922L104.797 68.0161L90.355 71.7836ZM94.6216 78.3829L99.4597 77.1208L95.6922 62.6788L90.8541 63.9409L94.6216 78.3829ZM72.9604 81.0456C80.6119 80.5854 88.6012 79.9535 94.6216 78.3829L90.8541 63.9409C86.4676 65.0852 79.9186 65.6748 72.0643 66.1472L72.9604 81.0456ZM68.6676 81.292C70.0925 81.2122 71.5347 81.1314 72.9604 81.0456L72.0643 66.1472C70.6745 66.2308 69.2631 66.3098 67.8328 66.39L68.6676 81.292ZM68.7153 81.2891L68.7157 81.2891L67.7847 66.3928L67.7843 66.3928L68.7153 81.2891ZM52.3759 82.6329C56.6468 81.9732 62.394 81.6434 68.6672 81.292L67.8324 66.39C61.8158 66.727 55.2456 67.0873 50.0976 67.8824L52.3759 82.6329ZM47.4345 83.3961L52.3759 82.6329L50.0976 67.8824L45.1562 68.6456L47.4345 83.3961ZM55.1971 84.7645L53.6706 74.8817L38.9201 77.16L40.4466 87.0429L55.1971 84.7645ZM51.6241 77.7652L46.6827 78.5285L48.961 93.2789L53.9024 92.5157L51.6241 77.7652ZM68.1329 76.3902C62.1643 76.7264 56.2425 77.0519 51.6241 77.7652L53.9024 92.5157C57.641 91.9382 62.7262 91.6438 68.9722 91.292L68.1329 76.3902ZM72.6646 76.1291C71.1322 76.2213 69.6227 76.3063 68.1329 76.3902L68.9722 91.292C70.4578 91.2083 71.9953 91.1217 73.5607 91.0276L72.6646 76.1291ZM93.3784 73.6171C87.8964 75.0471 80.381 75.665 72.6646 76.1291L73.5607 91.0276C81.0885 90.5748 90.0348 89.9142 97.1459 88.0591L93.3784 73.6171Z" fill="black" mask="url(#path-1-inside-1)"/>
</svg>
